<svg xmlns="http://www.w3.org/2000/svg" viewBox="0 0 1937 1635" width="1000" height="844"><title>Full Stack Web Developer (1)-svg-svg</title><style>		.s0 { fill: #ffffff } 		.s1 { fill: #e5f0f8 } 		.s2 { fill: #0775ef } 		.s3 { fill: none;stroke: #ffffff;stroke-linecap: round;stroke-width: 6.7 } 		.s4 { fill: #df941e } 		.s5 { fill: #bbdbf3 } 		.s6 { fill: #93c3e6 } 		.s7 { fill: #6795c8 } 		.s8 { fill: none;stroke: #ffffff;stroke-linecap: round;stroke-linejoin: round;stroke-width: 6.1 } 		.s9 { fill: none;stroke: #bbdbf3;stroke-linecap: round;stroke-linejoin: round;stroke-width: 2.2 } 		.s10 { fill: none;stroke: #bbdbf3;stroke-linecap: round;stroke-linejoin: round;stroke-width: 2.2;stroke-dasharray: 13.200000000000001,13.200000000000001 } 		.s11 { fill: none;stroke: #bbdbf3;stroke-linecap: round;stroke-linejoin: round;stroke-width: 2.2;stroke-dasharray: 15.400000000000002,15.400000000000002 } 		.s12 { fill: #ffffff;stroke: #bbdbf3;stroke-width: 3.4 } 		.s13 { fill: #bbdbf3;stroke: #bbdbf3;stroke-width: 3 } 		.s14 { fill: none;stroke: #bbdbf3;stroke-linecap: round;stroke-linejoin: round;stroke-width: 2.2;stroke-dasharray: 13.200000000000001 } 		.s15 { fill: #586773 } 		.s16 { fill: #93acbf } 		.s17 { fill: #014fa3 } 		.s18 { fill: #f2bb16 } 		.s19 { fill: #014fa3;stroke: #6795c8;stroke-width: 8 } 		.s20 { fill: #ffffff;stroke: #6795c8;stroke-width: 8 } 		.s21 { fill: #de2828 } 		.s22 { fill: #2ec6fc } 		.s23 { fill: #f74242 } 		.s24 { fill: #322a28 } 		.s25 { fill: #088cff } 		.s26 { fill: #a06753 } 		.s27 { fill: #824c3a } 		.s28 { fill: none;stroke: #d1ddff;stroke-width: 2.4 } 		.s29 { fill: none;stroke: #e5f0f8;stroke-width: 1.2 } 		.s30 { fill: none;stroke: #724638;stroke-linecap: round;stroke-linejoin: round;stroke-width: .6 } 		.s31 { fill: none;stroke: #2c3447;stroke-width: .9 } 		.s32 { fill: #a14c53 } 		.s33 { fill: none;stroke: #2c3447;stroke-width: 1.2 } 		.s34 { fill: #89a5c7 } 		.s35 { fill: none;stroke: #ffffff } 		.s36 { fill: #a5bbd6 } 		.s37 { fill: #fdae97 } 		.s38 { fill: #088cfc } 		.s39 { fill: #ea9d85 } 		.s40 { fill: none;stroke: #ffffff;stroke-linecap: round;stroke-linejoin: round;stroke-width: 1.4 } 		.s41 { fill: none;stroke: #ea9d85;stroke-linecap: round;stroke-linejoin: round;stroke-width: 1.4 } 		.s42 { fill: none;stroke: #332b27;stroke-width: .9 } 		.s43 { fill: #fff1f0 } 		.s44 { fill: none;stroke: #fff1f0;stroke-linecap: round;stroke-linejoin: round;stroke-width: 1.1 } 		.s45 { fill: none;stroke: #ffffff;stroke-linecap: round;stroke-linejoin: round;stroke-width: .7 } 		.s46 { fill: none;stroke: #332b27;stroke-width: 1.2 } 	</style><g id="_Artboards_">	</g><g id="321353356351 1"><path id="&lt;Path&gt;" class="s0" d="m2170 1735.2h-2398.7v-2200h2398.7z"></path><g id="&lt;Group&gt;"><path id="&lt;Path&gt;" class="s1" d="m235.8 1537.6c0 0-604.1-1565.3 504.4-1459.4 474.8 45.4 386.2 320.7 595.8 578.3 136 167 397.4 30.4 495.3 176.3 98 145.9-17.1 561.9-57.5 704.8z"></path><path id="&lt;Path&gt;" class="s2" d="m1852.4 1569.2h-1731.3c-9.6 0-17.4-7.7-17.4-17.3v-3.1c0-9.6 7.8-17.3 17.4-17.3h1731.3c9.6 0 17.4 7.7 17.4 17.3v3.1c0 9.6-7.8 17.3-17.4 17.3z"></path><g id="&lt;Group&gt;"><path id="&lt;Path&gt;" class="s0" d="m502.5 494.7h-368.7c-5.4 0-9.9-5-10.2-11.5-1.1-24.4-7.4-57.6 27.3-73 35-15.5 70.3 1.9 70.3 1.9 0 0 5.4-82.7 86.8-82.5 74.9 0.1 108.5 76.2 108.5 76.2 0 0 65.5-24.7 95.6 72.3 2.5 8-2.4 16.6-9.6 16.6z"></path><path id="&lt;Path&gt;" class="s0" d="m434.3 525.1h17.3c4.7 0 8.5-3.8 8.5-8.5v-31.1h-34.2v31.1c0 4.7 3.8 8.5 8.4 8.5z"></path><path id="&lt;Path&gt;" class="s0" d="m194.2 525.1h-17.3c-4.7 0-8.4-3.8-8.4-8.5v-31.1h34.2v31.1c0 4.7-3.8 8.5-8.5 8.5z"></path><path id="&lt;Path&gt;" class="s0" d="m306.1 525.1h17.3c4.7 0 8.4-3.8 8.4-8.5v-31.1h-34.1v31.1c0 4.7 3.7 8.5 8.4 8.5z"></path><path id="&lt;Path&gt;" class="s3" d="m185.6 505.3v216.5 247.8h119.4"></path><path id="&lt;Path&gt;" class="s3" d="m314.8 505.3v279.8"></path><path id="&lt;Path&gt;" class="s3" d="m443 505.3v32.5h337.6v-73h167.6"></path></g><g id="&lt;Group&gt;"><path id="&lt;Compound Path&gt;" class="s4" d="m1663 707.5c-0.8-34.5-4.8-68.2-11.6-100.9-0.4-2.1-0.8-4.1-1.2-6.1-53.6-243.8-265.4-428.3-522.3-440.1q-13.1-0.7-26.4-0.6c-43 0-85 4.8-125.2 14-32.4 7.4-63.7 17.5-93.6 30.2-13.9 5.8-27.5 12.3-40.8 19.2-90.8 47.4-166.9 118.8-220.1 205.9-30.9 50.5-54 106.2-67.7 165.5q-1.1 5-2.2 10c-7.9 37.7-12.1 76.8-12.1 116.9 0 75.8 15 148.1 42.3 214.1 84.1 204 285 347.6 519.4 347.6 62.1 0 122-10.1 177.9-28.8q21.5-7.1 42.1-16c150.6-64.1 267.5-192.2 316.5-350.1 16.3-52.7 25.2-108.7 25.2-166.8 0-4.7 0-9.4-0.2-14z"></path><path id="&lt;Path&gt;" class="s5" d="m1663.2 721.5c0 58.1-8.9 114.1-25.2 166.8-21.5 69.1-55.9 132.5-100.4 187.2-0.1 0.1-0.1 0.1-0.1 0.1-57.2 70.4-131.3 126.8-216 162.8q-20.6 8.9-42.1 16c-55.9 18.7-115.8 28.8-177.9 28.8-234.4 0-435.3-143.6-519.4-347.6-27.3-66-42.3-138.3-42.3-214.1 0-40.1 4.2-79.2 12.1-116.9q1.1-5 2.2-10c13.7-59.3 36.8-115 67.7-165.5 53.2-87.1 129.3-158.5 220.1-205.9 4.1-2.2 8.3-4.3 12.5-6.3q13.9-6.8 28.3-12.9c29.9-12.7 61.2-22.8 93.6-30.2 40.2-9.2 82.2-14 125.2-14q13.3-0.1 26.4 0.6c256.9 11.8 468.7 196.3 522.3 440.1 0.4 2 0.8 4 1.2 6.1 6.8 32.7 10.8 66.4 11.6 100.9 0.2 4.6 0.2 9.3 0.2 14z"></path><path id="&lt;Path&gt;" class="s1" d="m1663.2 721.5c0 58.1-8.9 114.1-25.2 166.8-21.5 69.1-55.9 132.5-100.4 187.2-0.1 0.1-0.1 0.1-0.1 0.1q-13.3 6.6-27 12.4c-13.8 5.9-27.8 11.2-42.2 16-55.9 18.7-115.8 28.8-177.9 28.8-118.3 0-228.1-36.7-318.6-99.1q-24.2-16.7-46.4-35.8c-35.3-30.2-66.7-64.6-93.6-102.5-24.1-34.1-44.6-71.1-60.7-110.2q-6.2-15-11.6-30.4-10.1-29.3-17.1-59.9c-8.9-39.8-13.6-81.3-13.6-123.9 0-40 4.2-79.1 12.1-116.8 0.7-3.3 1.5-6.7 2.2-10 13.7-59.3 36.8-115 67.6-165.6q3.5-5.6 7.1-11.2 0-0.1 0-0.1c11.3-17.5 23.6-34.3 36.6-50.4q13.9-6.8 28.3-12.9c29.9-12.7 61.2-22.8 93.6-30.2 40.2-9.2 82.2-14 125.2-14q13.3-0.1 26.4 0.6c256.9 11.8 468.7 196.3 522.3 440.1 0.4 2 0.8 4 1.2 6.1 6.8 32.7 10.8 66.4 11.6 100.9 0.2 4.6 0.2 9.3 0.2 14z"></path><path id="&lt;Path&gt;" class="s5" d="m1663.2 721.5c0 58.1-8.8 114.1-25.2 166.8-4.8-7.4-5.2-19-5.9-23.2-0.8-6.2-9.6 9.6-10.9 4.6-1.3-4.9 4.8-28.7-0.4-30.9-5.3-2.2-7.9 3.5-12.7 5.7-4.8 2.2-4.4 12.2-9.6 13.1-5.3 0.9-11.8 13.1-15.3 19.3-3.5 6.1-12.3 9.1-17.5 11.3-5.3 2.2-9.7 11.4-11.4 17.1-1.8 5.7-7.9 7.9-14 6.6-6.2-1.4 0.4-29.8 0.4-35.5 0-5.7-0.9-9.6-5.7-14.8-4.8-5.3-4.8-24.6-6.1-28.1-1.3-3.5-3.9-6.5-6.1-10-2.2-3.5 3.9-8.3 3.5-14-0.5-5.7 0.4-10.5 6.5-14.9 6.2-4.4 3.1-7 4-11.4 0.8-4.3 7.9-6.1 10-8.3 2.2-2.2-0.4-5.2 5.7-7 6.2-1.7 13.6-16.6 12.7-21-0.9-4.3 3.5-9.6 4.8-9.6 1.3 0 3.5-2.6 3.1-5.2-0.5-2.7-1.3-5.3 2.2-8.8 3.5-3.5 8.3-10.9 7-15.3-1.3-4.4 0.4-9.6 1.7-15.8 1.3-6.1 2.2-6.5 5.3-5.6 3 0.8 7.4 7.8 10.9 7.8 3.4 0 4-2.6 3.5-9.6-0.4-7-3.9-11.8-3.5-16.5 0.5-4.6 7-6.2 8.3-8.4 1.3-2.2 1.8-8.3 4.4-7.5 2.6 0.9 6.1 0 11.4 0.5 5.2 0.4-2.6 21 0 25.3 2.6 4.4 18.8 13.2 18.8 13.2 0 0 1.3-22.8-0.9-32-2.2-9.2-3.5-35-2.2-30.2 1.3 4.9 3.5 14.9 8.8 23.7 5.2 8.7 4.8 18.8 6.5 29.3 1.6 9.4 6.7 22.7 7.7 25.3q0.2 7 0.2 14z"></path><path id="&lt;Path&gt;" class="s6" d="m884.8 1190.1c-11.6 2.3-45-8.8-63-22.8-18.1-13.9-89.2-68.2-99.8-73.5-10.4-5.2-19.8-42-30.3-59.4-10.5-17.6-28.6-37.4-37.9-45.6-9.3-8.1-23.9-26.8-28-36.1-4.1-9.3-16.9-21.6-22.1-24-5.3-2.3-4.7-24.4-14.1-26.7-5.5-1.4-7.1 17.8-7.5 33.6-27.3-66-42.3-138.3-42.3-214.1 0-40.1 4.2-79.2 12.1-116.9 5.5-6.2 12.7-10.1 30-13 17.4-2.9 3.1 10.5 0 18.1-3 7.6-2.7 13.4 0 22.2 2.9 8.7 22.3 11.6 32.8 14.6 10.6 2.9-1.7-12.3 0-23.4 1.8-11.1 21.6-3.5 26.8-1.2 5.3 2.4 19.3 0 25.1-0.5 5.9-0.6 14.1-5.3 25.7-7 11.6-1.8 7 6.4 3.5 15.7-3.5 9.4-4.1 12.2-2.9 22.2 1.2 9.9 19.8 36.7 23.3 39.6 3.5 3 7 7 9.3 16.4 2.4 9.3 4.7 22.8 9.4 22.1 4.7-0.5 5.8 9.4 17.5 19.3 2.7 2.3 5.1 4 7.1 5.1q5.4 15.4 11.6 30.4c16.1 39.1 36.6 76.1 60.7 110.2-1.5 2.4-2.9 4.6-4.2 6.5-7 10.4-8.2 38.6-4 44.9 4 6.5 8.1 11.7 15.1 22.8 7 11.1 10.5 6.4 17.5 10.5 7 4.1 15.8 22.1 23.3 31.5 7.6 9.4 8.8 19.9-1.7 24.5-10.5 4.6-9.9 23.9-12.2 32.1-2.4 8.2 12.7 8.7 16.3 16.9 3.5 8.2 11.7 8.2 12.8 12.9 1.2 4.6-11.1 15.1-7.6 20.4 3.5 5.2 15.2 16.9 12.3 24.4-3 7.6 1.7 20.4 4.1 31 2.3 10.5-7.1 13.9-18.7 16.3z"></path><path id="&lt;Path&gt;" class="s5" d="m867.9 789.4c-2.3 14.5-1.8 23.3-1.2 34.4 0.6 11-8.1 20.4-13.4 33.2-4.3 10.6-14.1 27.1-21.5 38.4-24.1-34.1-44.6-71.1-60.7-110.2q-6.2-15-11.6-30.4c6.8 3.7 10.6 2 15.1 2.5 5.8 0.5 12.2 13.9 17.4 22.7 5.3 8.8 14.6 12.3 18.7 14.6 4.1 2.4 8.7-5.2 17.5-10.5 8.8-5.2 12.8-7 21.6-11 8.8-4.2 9.3-11.7 16.9-12.3 7.6-0.6 3.5 14 1.2 28.6z"></path><path id="&lt;Path&gt;" class="s6" d="m817.8 267.4q-3.6 5.6-7.1 11.2c-30.8 50.6-53.9 106.3-67.6 165.6-0.7 3.3-1.5 6.7-2.2 10-7.9 37.7-12.1 76.8-12.1 116.8 0 42.6 4.7 84.1 13.6 123.9-2.5-3-5-6-7.5-9.4-9.4-12.2-22.2-26.2-27-39-4.8-12.9 1.3-18.7 3-32.7 1.7-14-1.7-15.8-2.8-19.8-1.2-4.1 7.3-35.9 5.8-36.8-7-4.2-19.7 7.3-30.2 13-10.5 5.7-21.9 2.6-25.4-4.4-3.4-7 6.6-11.8 11-27.6 4.3-15.7-6.6-10-11.8-9.6-5.3 0.4-9.2 5.7-17.5 14.5-8.4 8.7 1.3 23.6-2.7 32.8-3.9 9.2-7.4-5.3-12.2-14.1-4.9-8.7 0.4-9.5 2.2-24 1.7-14.5-1.4-24-7.9-37.6-6.5-13.6-10.9 25.8-21.4 28.4-10.6 2.6-11.9 15.3-18 25.9-6.1 10.4-4.8 19.6-7.4 28.4-2.4 7.7-9.3 13.1-18.5 11.7 13.7-59.3 36.8-115 67.7-165.5 17.2-2 24.4-13.6 29.1-13.9 4.7-0.3 9-0.9 21-4.7 11.9-3.8 3.2-7 4.6-10.8 1.5-3.7 14.9-5.3 21.1-7.6 6.1-2.3 2.3-7.5 3.7-18.6 1.5-11.1 5.3-4.7 12.6-8.8 7.3-4.1 9-7.2 7.6-9.3-1.5-2-10.2 3.5-12.3 0.9-2.1-2.7 3.2-12.9-0.2-11.1-3.6 1.7-7.4 8.7-7.4 15.4 0 6.7-6.4 9.9-11.6 19.9-5.3 9.9-7.7 7.2-15.2 8.8-7.5 1.4-9.9-1.2-14.3-1.6-4.3-0.3 4.1-9.3 11.4-18 7.3-8.8 11.4-16.3 20.1-23.1 8.7-6.7 7.9-11.4 15.8-18.3 7.8-7 18.3-16.7 32.3-23.7 14-6.9 17.6 1.8 17.6 1.8 0 0 6.3 4.7 20.9-11.7 14.6-16.3 7-7 20.4-13.4 12-5.7 13.3-8.2 18.8-13.9z"></path><path id="&lt;Path&gt;" class="s5" d="m1398.1 631.9c0.6 4.1-11.7 6.9-25.1-3.3-13.4-10.2-20.4-9-30.3-15.4-9.9-6.4-14.6-9.9-23.3-25.1-8.8-15.2-6.5-20.4-10.5-31.5-4.1-11-13.4-5.2-17.6 1.8-4 7-18 4.6-27.4 1.8-9.3-3-9.3-12.9-26.2-21.6-16.9-8.8-22.2-2.4-35.6-1.2-13.4 1.2-26.3 14.6-36.2 19.8-9.9 5.3-7 9.3-7.5 18.1-0.6 8.7-15.8 31.5-24 39.1-8.2 7.5-1.1 9.3 5.9 22.1 7 12.9 6.4 8.2 4.7 16.9-1.8 8.8-5.9 15.8-6.5 28.1-0.5 12.2-5.2 19.8-11.6 19.8-6.5 0-16.4-12.9-22.2-25.1-5.9-12.3-17-15.8-35-25.7-18.1-9.9-12.3-13.3-21-29.1-8.8-15.8-14.6-21.1-16.9-14-2.3 7-11.1 0-26.9-2.9-15.7-3-16.9-11.7-30.3-19.9-13.4-8.1-22.1 4.1-30.3 6.6-8.2 2.5-19.9 10.3-29.3 14.4-9.5 4.1-23.8 1.2-33.1 2.9-9.4 1.8-24.5 0.6-36.2 0-11.7-0.5-15.7-9.8-27.4-17.3-11.7-7.4-14.6 1-19.3 5.7-4.6 4.6 2.3 7.6 11.6 16.3 9.1 8.7 13 6.4 22.3 15.2 9.3 8.8 18 15.1 25.7 6.4 7.5-8.7 12.2-7 22.1-6.4 9.9 0.6 23.4-3.5 29.8-3 6.3 0.7 5.8 19.9-0.6 31-6.4 11 2.9 26.8 0 29.7-2.9 2.9-12.8 4.1-19.3 9.3-6.4 5.3-9.9 12.3-21.6 16.4-11.6 4-9.3 11.7-11.6 19.8-2.3 8.2-17.6 14.6-30.9 22.2-13.4 7.6-16.4 21.6-25.2 22.1-8.7 0.6-5.8-13.9-9.8-27.9-4.1-14.1-21.6-11.7-29.8-26.5-6-10.9-12.5-18.5-19.3-26.6-8.9-39.8-13.6-81.3-13.6-123.9 0-40 4.2-79.1 12.1-116.8 0.7-3.3 1.5-6.7 2.2-10 13.7-59.3 36.8-115 67.6-165.6q3.5-5.6 7.1-11.2 0-0.1 0-0.1 1-1.1 2.3-2.3c7.5-7.6 15.1-7 26.8-7 11.7 0 18.1-2.3 28.6-7.6 10.4-5.3-2.3-15.8 4.6-26.2 7-10.5 26.9-6.5 33.2-11.7 6.5-5.3 11.1-9.4 24-13.4 12.8-4.2 19.2-7.6 26.8-14.1 3-2.5 7.6-6.8 12.2-11.2 40.2-9.2 82.2-14 125.2-14q13.3-0.1 26.4 0.6c6.4 3.6 12.2 6.4 15.3 6.6 9.9 0.5 15.2 2.3 30.9 7.6 15.7 5.3 15.2 8.7 21 14 5.8 5.2 8.1-0.6 23.4-4.7 15.1-4 11 9.3 30.9 11.7 19.8 2.3 36.1 20.9 48.4 28.6 12.2 7.5 15.1 8.1 9.9 17.4-5.3 9.4-3.5 11.1 0.6 21.1 4.1 9.9 13.4 6.4 18.1 7.8 4.6 1.4 13.9 7.9 21.5 12 7.6 4 12.9 15.2 8.8 20.4-4.1 5.2-17.5 0.6-18.7-9.4-1.2-9.9-12.8-8.7-22.7-19.1-10-10.4-10.5 2.8-14.6 8.6-4.1 5.9-7.6 3.5-15.2-5.2-7.6-8.7-6.9 1.2-11.6 8.7-4.7 7.7 2.3 12.3 9.3 18.1 7 5.8 8.8-1.1 12.3-3.4 3.5-2.4 10.4-8.8 8.7 0-1.8 8.7 2.3 16.3 8.7 12.7 6.5-3.5 8.2 4.7 15.8 13.5 7.6 8.7 15.7 10.5 29.2 15.7 13.4 5.3 8.1 11.7 12.8 24.6 4.6 12.8 8.1 25.6 7.6 36.7-0.6 11.1 1.1 16.9-7.6 28.5-8.8 11.8-9.9 12.9-25.1 18.7-15.1 5.9-5.8 0.6-12.3 3.5-6.4 2.9-5.2 9.3-6.9 21.6-1.8 12.3 4.6 9.9 13.9 17.5 9.4 7.6 19.3 5.9 32.2 9.9 12.7 4.1 12.2 8.2 16.9 17.6 4.6 9.3 5.8 13.3 0.5 20.9-5.2 7.6-2.3 15.8-1.7 27.4 0.6 11.7-8.8 9.9-11.1-5.8-2.3-15.8-8.1-4.7-16.9-4.7-8.8 0-12.8-7-23.4-9.9-10.4-2.9-8.7 1.8-15.1 10.6-6.4 8.7 5.2 19.2 8.8 28.5 3.5 9.3 14.5 8.2 29.7 12.8 15.1 4.7 12.3 3 21 13.5 8.7 10.4 16.3 12.8 16.9 16.9z"></path><path id="&lt;Path&gt;" class="s6" d="m973.4 1085.4c-6.7 2-19.8-5-30.9-10.8-11.1-5.8-3.2-8.4-3.7-20.7-0.6-12.3-7.4-12.8-13.8-18.7-6.4-5.8-10.8-12.5-14.9-18.6-3.4-5.2 3.8-11.9 15.3-18.7q22.2 19.1 46.4 35.8c0.8 2.4 1.3 4.9 1.6 7.7 1.2 10.4 8.5 18.9 10 29.7 1.4 10.8-3.3 12.3-10 14.3z"></path><path id="&lt;Path&gt;" class="s5" d="m971.8 1033.7q-24.2-16.7-46.4-35.8c2.1-1.3 4.3-2.5 6.7-3.8 15.1-8.1-5.4-28.8 6.7-28 8.4 0.6 9.3 5 13.7 11.3 4.3 6.5 9 10 12.5 17 3.5 7 1.4 10.2 1.7 19.8 0.3 7.1 3.2 12.8 5.1 19.5z"></path><path id="&lt;Path&gt;" class="s5" d="m1307.5 639.3c-3.4-9.8 19.3-11.8 28-6.1 8.8 5.7 14.5 12.7 26.7 14.9 12.3 2.1 13.6 1.7 21 0 7.5-1.8 17.5-10.5 18.8-1.8 1.3 8.8-3 14.4 4.4 17.1 7.4 2.6 16.2 2.6 22.3 5.7 6.1 3 4.8 2.6 6.6 9.6 1.7 7 6.1 19.2-0.9 19.2-7 0-13.1-4.3-27.6-6.1-14.4-1.7-17.5-1.3-27.5-10.9-10.1-9.7 0.4-7-17.5-12.7-17.9-5.7-21-12.3-31.1-18.4-10-6.1-20.1-1.7-23.2-10.5z"></path><path id="&lt;Path&gt;" class="s5" d="m1445.3 697.9c4 8.4 12.7-3.5 20.6-5.7 7.9-2.1 6.1-0.4 15.3-2.1 9.2-1.8 11.4-12.3 18.8-11.4 7.5 0.9-4.8-8.8-12.7-6.1-7.8 2.6-8.7 2.6-19.6 6.5-11 4-25.9 11.4-22.4 18.8z"></path><path id="&lt;Path&gt;" class="s5" d="m1651.4 606.6c-3.2-1.5-6.1-3.1-6.6-3.9-1.1-2-5.2-12.3-9-15.2-3.8-2.9-2 7.9-0.3 14.3 1.7 6.4 1.2 9.1-2 7.3-3.2-1.7-5-1.1-8.5 2.1-3.5 3.2-6.1 2.6-4.4-11.1 1.8-13.7-3.6-13.2-12.5-16.9-5.2-2.2-11.4-1.5-17.5-2.4-6.1-0.8-10.8-5.2-14.3-11.1-3.5-5.8 3.8-11.6 9-12.2 5.3-0.6 3 9.1 13.2 14.6 10.2 5.5 1.7-6.4 2.6-16.9 0.9-10.5 9.6-2.7 19.5-1.5 10 1.2 9.4 11.4 12.6 18.1 3.2 6.7 5.8 10.5 7.8 17.2 0.9 2.9 4.9 7.3 9.1 11.5 0.5 2 0.9 4.1 1.3 6.1z"></path><path id="&lt;Path&gt;" class="s5" d="m1439.2 612.8c-3.2 8.6 3.5 15.3 7.6 19.4 4.1 4 8.2 9.9 10.2 13.7 2.1 3.8 5.3 6.1 10.5 2 5.3-4.1 5.3-8.7 14.9-8.2 9.6 0.6 14.9 10.3 18.1 0.3 3.2-9.9 1.7-11 1.8-18.9 0.2-7.9 6.3-18.1 3.1-23.4-3.2-5.2-9.9-7-3.1-12.2 6.9-5.3 0.8-7-4.2-8.2-4.9-1.1-11.6-2-12.2-9.3-0.6-7.3 1.7-11.1 4.1-15.7 2.3-4.7 5.5-11.4-4.7-8.8-10.2 2.6-18.7 2.6-17.5 11.4 1.2 8.7 0.3 14.3-6.4 19.2-6.7 5-0.9 16.7-4.4 22.4-3.5 5.6-15.7 10.9-17.8 16.3z"></path><path id="&lt;Path&gt;" class="s5" d="m1336.9 236.4c-10.1 1.5 12.6 6.6 18.8 16.2 6.1 9.6 19.6 8.7 14 21-5.7 12.2-8.8 10.5-6.2 17.9 2.7 7.5-5.2 14 1.4 14 6.5 0 14.8-2.2 21.4 6.1 6.5 8.4 6.5 0.5 0.9-10.5-5.7-10.9-6.6-14.4-3.5-19.6 3-5.3 3.9-13.6-2.2-20.6-6.2-7-10.3-4.8-17.4-12.3-7.1-7.4-21.6-13.1-27.2-12.2z"></path><path id="&lt;Path&gt;" class="s5" d="m1152.9 666c-6.1 2.7-2.2 10.7 0.2 16 2.4 5.2-2 8.5 3.1 13.5 5 5.1 11.8 12.3 15.7 8.8 4-3.5 16.2-8.1 9.9-15.3-6.4-7.3-9.2-7.5-14-12.7-4.8-5.3-8.1-13.4-14.9-10.3z"></path><path id="&lt;Path&gt;" class="s5" d="m1515.9 586.1c1.1 12.8 7 13.1 5 21.9-2.1 8.7-2.4 15.1 1.4 15.1 3.8 0 5.6-21.9 9.4-14 3.8 7.9 7.8 12 8.7 7.3 0.9-4.7-11.4-13.9-6.7-19.9 4.7-6 14.6-21.5 2.9-13.9-11.6 7.6-16 17.2-17.8 8.7-1.7-8.4-4-12.2 5.9-15.1 9.9-3 18.3-2.4 19.5-9.1 1.2-6.7 2.1-20.4-7-10.8-9 9.7-9.6 8.2-16.9 13.2-7.3 4.9-14.3 5.2-11.4 9.3 2.9 4.1 6.5 1.4 7 7.3z"></path><path id="&lt;Path&gt;" class="s5" d="m1436.2 433.7c-8.4 0.4-7.5 6.1-2.2 12.2 5.2 6.2 6.1 13.2 13.1 19.7 7 6.6 15.3 9.2 17.1 14.9 1.7 5.7 8.5-0.4 8.2-6.6-0.4-6.1 8.4-3.5 12.8 0.9 4.3 4.4 9.1 4.1 11.3 8 2.2 3.8 10.5-2.3 1.8-8-8.8-5.7-10.1-8.3-19.3-11.8-9.2-3.5-8.1-3.1-12.5 0-4.5 3.1-7.6 4.1-13.3-4.9-5.7-9.1-3.6-17.4-8.4-21.8-4.7-4.4 0.1-3-8.6-2.6z"></path></g><g id="&lt;Group&gt;"><path id="&lt;Path&gt;" class="s7" d="m109.7 1491.9v-714.4h976.5v714.4z"></path><path id="&lt;Path&gt;" class="s0" d="m1077.2 786.5v696.3h-958.5v-696.3z"></path><path id="&lt;Path&gt;" class="s7" d="m1077.2 786.5v65.6h-958.5v-65.6z"></path><g id="&lt;Group&gt;"><path id="&lt;Path&gt;" class="s8" d="m1016.6 838.2l37.7-37.7"></path><path id="&lt;Path&gt;" class="s8" d="m1054.3 838.2l-37.7-37.7"></path></g><g id="&lt;Group&gt;"><g id="&lt;Group&gt;"><path id="&lt;Path&gt;" class="s9" d="m598 1031.9v6.5h-6.5"></path><path id="&lt;Path&gt;" class="s10" d="m578.5 1038.4h-411"></path><path id="&lt;Path&gt;" class="s9" d="m161 1038.4h-6.4v-6.5"></path><path id="&lt;Path&gt;" class="s11" d="m154.6 1017.6v-21.4"></path><path id="&lt;Path&gt;" class="s9" d="m154.6 989.1v-6.5h6.4"></path><path id="&lt;Path&gt;" class="s10" d="m174.1 982.6h410.9"></path><path id="&lt;Path&gt;" class="s9" d="m591.5 982.6h6.5v6.5"></path><path id="&lt;Path&gt;" class="s11" d="m598 1003.3v21.5"></path></g></g><path id="&lt;Path&gt;" class="s1" d="m259.3 900.8h-104.7v-15.8h104.7z"></path><path id="&lt;Path&gt;" class="s1" d="m399 900.8h-104.7v-15.8h104.7z"></path><path id="&lt;Path&gt;" class="s1" d="m538.7 900.8h-104.7v-15.8h104.7z"></path><path id="&lt;Path&gt;" class="s1" d="m678.5 900.8h-104.8v-15.8h104.8z"></path><path id="&lt;Path&gt;" class="s1" d="m818.2 900.8h-104.7v-15.8h104.7z"></path><path id="&lt;Path&gt;" class="s5" d="m1041.3 913.1h-97.2v-40.4h97.2z"></path><g id="&lt;Group&gt;"><path id="&lt;Path&gt;" class="s1" d="m332.6 1374.6v108.2h-178v-108.2z"></path><path id="&lt;Path&gt;" class="s0" d="m325.9 1381.7v101.1h-164.6v-101.1z"></path><path id="&lt;Path&gt;" class="s1" d="m207.8 1452.9l24.2 29.9h-48.8z"></path><path id="&lt;Path&gt;" class="s1" d="m314.8 1482.8h-68l39.8-67.3z"></path><path id="&lt;Path&gt;" class="s1" d="m251.9 1412.4c0 4.6-3.7 8.4-8.3 8.4-4.6 0-8.3-3.8-8.3-8.4 0-4.6 3.7-8.3 8.3-8.3 4.6 0 8.3 3.7 8.3 8.3z"></path></g><g id="&lt;Group&gt;"><path id="&lt;Path&gt;" class="s1" d="m1041.3 1374.6v108.2h-178.1v-108.2z"></path><path id="&lt;Path&gt;" class="s0" d="m1034.5 1381.7v101.1h-164.5v-101.1z"></path><path id="&lt;Path&gt;" class="s1" d="m916.5 1452.9l24.2 29.9h-48.9z"></path><path id="&lt;Path&gt;" class="s1" d="m1023.4 1482.8h-68l39.9-67.3z"></path><path id="&lt;Path&gt;" class="s1" d="m960.6 1412.4c0 4.6-3.7 8.4-8.3 8.4-4.6 0-8.4-3.8-8.4-8.4 0-4.6 3.8-8.3 8.4-8.3 4.6 0 8.3 3.7 8.3 8.3z"></path></g><g id="&lt;Group&gt;"><path id="&lt;Path&gt;" class="s1" d="m805.1 1374.6v108.2h-178.1v-108.2z"></path><path id="&lt;Path&gt;" class="s0" d="m798.3 1381.7v101.1h-164.5v-101.1z"></path><path id="&lt;Path&gt;" class="s1" d="m680.3 1452.9l24.2 29.9h-48.9z"></path><path id="&lt;Path&gt;" class="s1" d="m787.2 1482.8h-68l39.9-67.3z"></path><path id="&lt;Path&gt;" class="s1" d="m724.4 1412.4c0 4.6-3.8 8.4-8.4 8.4-4.6 0-8.3-3.8-8.3-8.4 0-4.6 3.7-8.3 8.3-8.3 4.6 0 8.4 3.7 8.4 8.3z"></path></g><g id="&lt;Group&gt;"><path id="&lt;Path&gt;" class="s1" d="m568.9 1374.6v108.2h-178.1v-108.2z"></path><path id="&lt;Path&gt;" class="s0" d="m562.1 1381.7v101.1h-164.5v-101.1z"></path><path id="&lt;Path&gt;" class="s1" d="m444.1 1452.9l24.2 29.9h-48.9z"></path><path id="&lt;Path&gt;" class="s1" d="m551 1482.8h-68l39.8-67.3z"></path><path id="&lt;Path&gt;" class="s1" d="m488.1 1412.4c0 4.6-3.7 8.4-8.3 8.4-4.6 0-8.3-3.8-8.3-8.4 0-4.6 3.7-8.3 8.3-8.3 4.6 0 8.3 3.7 8.3 8.3z"></path></g><path id="&lt;Path&gt;" class="s1" d="m364.1 1115.1h-209.5v-25.9h209.5z"></path><path id="&lt;Path&gt;" class="s1" d="m478.5 1115.1h-96.5v-25.9h96.5z"></path><path id="&lt;Path&gt;" class="s1" d="m290.1 1160.6h-135.5v-25.9h135.5z"></path><path id="&lt;Path&gt;" class="s1" d="m529.2 1160.6h-221.2v-25.9h221.2z"></path><g id="&lt;Group&gt;"><path id="&lt;Path&gt;" class="s1" d="m190.9 1198.4h-36.3v-11.5h36.3z"></path><path id="&lt;Path&gt;" class="s1" d="m339.4 1198.4h-143.4v-11.5h143.4z"></path><path id="&lt;Path&gt;" class="s1" d="m469.4 1198.4h-124.3v-11.5h124.3z"></path><path id="&lt;Path&gt;" class="s1" d="m603.5 1198.4h-129v-11.5h129z"></path><path id="&lt;Path&gt;" class="s1" d="m229.9 1220.2h-75.3v-11.4h75.3z"></path><path id="&lt;Path&gt;" class="s1" d="m370.4 1220.2h-134.7v-11.4h134.7z"></path><path id="&lt;Path&gt;" class="s1" d="m603.5 1220.2h-227.3v-11.4h227.3z"></path><path id="&lt;Path&gt;" class="s1" d="m270.1 1242.1h-115.5v-11.5h115.5z"></path><path id="&lt;Path&gt;" class="s1" d="m438.5 1242.1h-163.6v-11.5h163.6z"></path><path id="&lt;Path&gt;" class="s1" d="m603.5 1242.1h-158.7v-11.5h158.7z"></path><path id="&lt;Path&gt;" class="s1" d="m296.1 1263.9h-141.5v-11.4h141.5z"></path></g><path id="&lt;Path&gt;" class="s1" d="m1015.1 1355.4h-125.7v-11.5h125.7z"></path><path id="&lt;Path&gt;" class="s1" d="m778.9 1355.4h-125.7v-11.5h125.7z"></path><path id="&lt;Path&gt;" class="s1" d="m542.6 1355.4h-125.6v-11.5h125.6z"></path><path id="&lt;Path&gt;" class="s1" d="m306.4 1355.4h-125.6v-11.5h125.6z"></path><g id="&lt;Group&gt;"><path id="&lt;Path&gt;" class="s12" d="m620.7 1005.2h-443.4v-55.8h443.4z"></path><path id="&lt;Path&gt;" class="s13" d="m509.5 1005.2h111.2v-55.8h-111.2z"></path><path id="&lt;Compound Path&gt;" fill-rule="evenodd" class="s0" d="m538.8 963.5c5-8.9 16.2-12.1 25.1-7.1 8 4.5 11.3 14 8.3 22.4l29.7 16.6-2.9 5.1-29.7-16.6c-5.5 7-15.4 9.2-23.4 4.7-8.9-4.9-12.1-16.2-7.1-25.1zm3.5 2c-3.9 6.9-1.4 15.7 5.6 19.6 6.9 3.9 15.7 1.4 19.6-5.6 3.9-6.9 1.4-15.7-5.5-19.6-7-3.9-15.8-1.4-19.7 5.6z"></path></g><path id="&lt;Path&gt;" class="s14" d="m1041.3 1308.2h-408.6v-325.6h408.6z"></path><g id="&lt;Group&gt;"><path id="&lt;Path&gt;" class="s5" d="m710.7 1256.9v-325.6h408.6v325.6z"></path><path id="&lt;Path&gt;" class="s0" d="m1103.7 1240.5h-377.5v-292.8h377.5z"></path><path id="&lt;Path&gt;" class="s5" d="m726.2 1240.5l106.7-129.6 75 92.8 105.8-178.5 90 215.3z"></path><path id="&lt;Path&gt;" class="s5" d="m934.1 1018.2c0 10.5-8.6 19.1-19.1 19.1-10.6 0-19.1-8.6-19.1-19.1 0-10.6 8.5-19.1 19.1-19.1 10.5 0 19.1 8.5 19.1 19.1z"></path></g></g><g id="&lt;Group&gt;"><path id="&lt;Path&gt;" class="s15" d="m1673.6 200.3h23.9l-21.7 32.5-9-12z"></path><path id="&lt;Path&gt;" class="s15" d="m1246.8 156.5h23.8l-12.6 39.3-22.3-20.7z"></path><path id="&lt;Path&gt;" class="s15" d="m1570.1 104.5h23.8l-1 15.9-18.7-3.5z"></path><path id="&lt;Path&gt;" class="s15" d="m1315.9 586.8h23.8l-15.1-22.6-26 6.3z"></path><path id="&lt;Path&gt;" class="s15" d="m1202.4 279.9h-23.8l-7.9 76.3h23.8z"></path><path id="&lt;Path&gt;" class="s15" d="m1367.8 83.7h23.8l-46.1 33.3z"></path><path id="&lt;Path&gt;" class="s15" d="m1518.3 607.5h23.9l4.1-18.4-20 1.9z"></path><path id="&lt;Path&gt;" class="s15" d="m1663 534.8h-23.8l-2.5-16.9 18.2-2z"></path><path id="&lt;Path&gt;" class="s15" d="m1453.5 618h23.9l-27.6-3.8-5.4 3.4z"></path><path id="&lt;Path&gt;" class="s15" d="m1707.4 411.4h23.9l-18.2-16.7-17.3 8.4z"></path><path id="&lt;Compound Path&gt;" fill-rule="evenodd" class="s15" d="m1707.4 411.4c-21.9-7.9-44.7-1.1-51.1 15.6-6.3 16.7 6.1 37 27.9 45.8-11.8 22.2-26.8 43.2-45 62-15.1-17.9-38.3-23.3-52.2-12-13.7 11.2-13.2 35 1.3 53.4-22.1 14.1-45.7 24.4-70 31.3-4-22.9-21.5-39.3-39.2-36.4-17.4 2.9-28.9 23.6-25.6 46.9-25.6 0.9-51.4-1.8-76.3-7.9 8-22 1.1-44.7-15.6-51-16.7-6.5-36.9 5.9-45.7 27.7-22.3-11.7-43.3-26.6-62.1-45 17.9-15.1 23.4-38.2 12.1-52.1-11.3-13.8-35-13.3-53.5 1.3-14.1-22.2-24.4-45.8-31.4-70.1 23.1-4.1 39.3-21.4 36.6-39.1-3-17.5-23.8-29-46.9-25.6-0.9-25.6 1.8-51.4 7.9-76.3 22 8 44.7 1 51-15.6 6.4-16.6-6-37.1-27.6-45.7 11.6-22.4 26.6-43.3 44.8-62.1 15.1 17.9 38.3 23.3 52 12 14-11.3 13.4-35.1-1-53.4 22.1-14.1 45.7-24.5 70-31.4 4.1 23 21.4 39.3 38.9 36.6 17.7-2.9 29.1-23.7 25.8-47 25.7-0.8 51.3 1.7 76.2 7.9-7.9 21.9-1 44.8 15.7 51.1 16.6 6.3 36.9-6 45.7-27.8 22.4 11.8 43.4 26.7 62.1 44.9-17.9 15.2-23.3 38.3-12.1 52.1 11.4 14 35 13.3 53.5-1.2 14.1 22.2 24.4 45.7 31.4 70-23.1 4.2-39.3 21.6-36.5 39.1 2.8 17.7 23.7 29 46.8 25.6 1 25.8-1.6 51.5-7.9 76.4zm-76.4-70.1c-0.1-6.2-0.6-12.3-1.3-18.3-0.1-0.8-0.2-1.7-0.3-2.5-1-7.2-2.4-14.4-4.1-21.3q-0.5-1.8-1-3.5c-0.3-1.2-0.6-2.3-1-3.5q-1.5-5.3-3.4-10.4c-8.5-23.6-21.6-45-38.2-63.1q-1.6-1.9-3.3-3.6-0.2-0.2-0.4-0.4-1.6-1.6-3.2-3.2-1.3-1.3-2.6-2.5c-0.9-0.9-1.8-1.7-2.7-2.5l-0.2-0.2q-1.5-1.4-3.1-2.8-0.2-0.1-0.4-0.3-1.5-1.4-3.2-2.7c-1.1-0.9-2.3-1.9-3.5-2.8q-6.2-4.9-12.8-9.2-1.4-1-2.7-1.8-2.4-1.5-4.8-2.9-1.8-1.1-3.6-2.1-2.1-1.2-4.3-2.3 0 0-0.1-0.1c-1.2-0.7-2.6-1.3-3.9-2q-0.3-0.2-0.7-0.3-2-1-4-2-2.2-1-4.4-1.9c-9.3-4.1-18.9-7.3-28.7-9.8q-4.8-1.2-9.6-2.1-0.3-0.1-0.6-0.1-4.5-0.9-9.1-1.6-0.7-0.1-1.3-0.2-4.2-0.5-8.4-0.9-1-0.1-2.1-0.2-3.8-0.3-7.6-0.4-1.4-0.1-2.8-0.1c-2.8-0.1-5.5-0.1-8.2-0.1-53 1-100.6 23.9-134.1 60q-5.1 5.6-9.8 11.4c-24.7 31.2-38.4 68.9-40.3 107.2q-0.2 4.7-0.2 9.4c0 1.5 0 3.1 0 4.6q0 0.5 0 0.9 0.1 2.1 0.2 4.2 0.1 2.4 0.3 4.8 0.2 2.5 0.4 4.9c0.2 1.4 0.3 2.7 0.5 4.1q0.3 2.7 0.7 5.4 0.4 2.2 0.8 4.4 0.4 2.4 0.9 4.6c0.3 1.6 0.6 3.1 1 4.6q2.9 12.8 7.6 24.9c0.4 1.1 0.9 2.3 1.3 3.4q0.7 1.7 1.5 3.4c0.5 1.1 0.9 2.2 1.5 3.4 8.2 18.2 19.3 34.9 32.7 49.5q1.3 1.4 2.6 2.8 1.2 1.3 2.5 2.5c0.3 0.3 0.6 0.6 0.8 0.9 1 1 1.9 1.9 2.9 2.8 0 0.1 0.1 0.1 0.1 0.1q1.6 1.6 3.3 3 1.6 1.6 3.3 3c1.2 1 2.3 2 3.5 3q3.4 2.8 7 5.5 0 0 0.1 0c3.6 2.8 7.3 5.3 11 7.7q2 1.2 4 2.5 1.6 1 3.2 1.9 2.3 1.3 4.7 2.6c1.1 0.7 2.3 1.3 3.5 1.9 1.8 0.9 3.6 1.8 5.4 2.6q1.7 0.8 3.3 1.6 2.1 0.9 4.2 1.8 5.9 2.5 12 4.6 2.1 0.7 4.1 1.3 2.5 0.9 5.1 1.6 2.3 0.7 4.6 1.3 2 0.5 4 0.9 11.8 2.9 24.2 4.1 2.3 0.3 4.7 0.5c12.8 1 25.7 0.6 38.5-1q2.3-0.3 4.7-0.7c1.6-0.2 3.2-0.5 4.9-0.8 1.4-0.3 2.9-0.5 4.3-0.8q4.3-0.9 8.6-2 1.7-0.4 3.5-0.9 1.7-0.5 3.5-1 1.7-0.5 3.4-1.1c2.4-0.7 4.7-1.5 7-2.4q1.7-0.6 3.4-1.3 1.8-0.6 3.5-1.3c1.1-0.5 2.2-0.9 3.4-1.4 19.5-8.4 37.3-20 52.8-34.2q1.8-1.7 3.6-3.4 0.2 0 0.3-0.3 1.6-1.5 3.2-3.1 1.3-1.3 2.5-2.7 1.3-1.3 2.6-2.7 1.6-1.7 3-3.4 1.5-1.7 2.9-3.4c3.9-4.7 7.5-9.5 10.8-14.5q0.9-1.3 1.8-2.6 2.4-3.7 4.6-7.5 0.8-1.3 1.6-2.7 1.4-2.6 2.8-5.3c0.6-1 1.1-2.1 1.6-3.1q0.2-0.4 0.4-0.8 0.9-1.8 1.8-3.7 0.2-0.3 0.3-0.7 0.9-1.9 1.7-3.8 0.1-0.2 0.2-0.4 0.9-2.1 1.8-4.3c0.6-1.5 1.2-3 1.7-4.5q2.5-6.8 4.6-13.7c2.6-9.3 4.5-18.7 5.8-28.2q0.3-2.4 0.5-4.8 1-9.4 1-19.1c0-1.4-0.1-2.9-0.1-4.3z"></path><path id="&lt;Path&gt;" class="s15" d="m1212.4 491h23.8l1.5-29.5-27.2 8.8z"></path><path id="&lt;Compound Path&gt;" fill-rule="evenodd" class="s16" d="m1731.3 411.4c-22-7.9-44.8-1.1-51.2 15.6-6.2 16.7 6.1 37 27.9 45.8-11.8 22.2-26.8 43.2-45 62-15.1-17.9-38.2-23.3-52.1-12-13.8 11.2-13.3 35 1.2 53.4-22 14.1-45.7 24.4-69.9 31.3-4.1-22.9-21.6-39.3-39.2-36.4-17.5 2.9-28.9 23.6-25.6 46.9-25.7 0.9-51.4-1.8-76.3-7.9 7.9-22 1-44.7-15.6-51-16.8-6.5-37 5.9-45.8 27.7-22.2-11.7-43.3-26.6-62-45 17.8-15.1 23.3-38.2 12-52.1-11.3-13.8-35-13.3-53.5 1.3-14.1-22.2-24.4-45.8-31.3-70.1 23-4.1 39.3-21.4 36.5-39.1-2.9-17.5-23.8-29-46.9-25.6-0.9-25.6 1.8-51.4 7.9-76.3 22.1 8 44.7 1 51.1-15.6 6.4-16.6-6.1-37.1-27.7-45.7 11.6-22.4 26.6-43.3 44.8-62.1 15.1 17.9 38.3 23.3 52.1 12 14-11.3 13.4-35.1-1-53.4 22-14.1 45.6-24.5 69.9-31.4 4.1 23 21.4 39.3 39 36.6 17.7-2.9 29-23.7 25.7-47 25.7-0.8 51.4 1.7 76.3 7.9-8 21.9-1.1 44.8 15.6 51.1 16.6 6.3 36.9-6 45.7-27.8 22.4 11.8 43.4 26.7 62.1 44.9-17.9 15.2-23.3 38.3-12 52.1 11.3 14 35 13.3 53.5-1.2 14.1 22.2 24.4 45.7 31.3 70-23.1 4.2-39.3 21.6-36.4 39.1 2.7 17.7 23.6 29 46.7 25.6 1 25.8-1.6 51.5-7.8 76.4zm-76.5-70.1c-0.1-6.2-0.5-12.3-1.3-18.3-0.1-0.8-0.2-1.7-0.3-2.5-0.9-7.2-2.3-14.4-4.1-21.3q-0.5-1.8-0.9-3.5c-0.3-1.2-0.7-2.3-1-3.5q-1.6-5.3-3.5-10.4c-8.4-23.6-21.5-45-38.1-63.1q-1.7-1.9-3.4-3.6-0.2-0.2-0.3-0.4-1.6-1.6-3.2-3.2-1.3-1.3-2.7-2.5c-0.9-0.9-1.7-1.7-2.6-2.5l-0.2-0.2q-1.6-1.4-3.2-2.8-0.2-0.1-0.4-0.3-1.5-1.4-3.1-2.7c-1.2-0.9-2.4-1.9-3.6-2.8q-6.2-4.9-12.8-9.2-1.3-1-2.7-1.8-2.4-1.5-4.8-2.9-1.8-1.1-3.6-2.1-2.1-1.2-4.3-2.3 0 0 0-0.1c-1.3-0.7-2.6-1.3-3.9-2q-0.4-0.2-0.7-0.3-2.1-1-4.1-2-2.2-1-4.4-1.9c-9.3-4.1-18.9-7.3-28.6-9.8q-4.9-1.2-9.7-2.1-0.3-0.1-0.6-0.1-4.5-0.9-9.1-1.6-0.6-0.1-1.3-0.2-4.1-0.5-8.3-0.9-1.1-0.1-2.2-0.2-3.8-0.3-7.6-0.4-1.4-0.1-2.8-0.1c-2.7-0.1-5.5-0.1-8.2-0.1-52.9 1-100.5 23.9-134.1 60q-5.1 5.6-9.8 11.4c-24.7 31.2-38.3 68.9-40.3 107.2q-0.2 4.7-0.2 9.4c0 1.5 0 3.1 0 4.6 0 0.3 0 0.6 0.1 0.9q0 2.1 0.1 4.2 0.1 2.4 0.3 4.8 0.2 2.5 0.5 4.9c0.1 1.4 0.3 2.7 0.4 4.1q0.4 2.7 0.8 5.4 0.3 2.2 0.7 4.4 0.4 2.4 0.9 4.6c0.3 1.6 0.6 3.1 1 4.6q3 12.8 7.6 24.9c0.5 1.1 0.9 2.3 1.4 3.4q0.7 1.7 1.4 3.4c0.5 1.1 1 2.2 1.5 3.4 8.2 18.2 19.3 34.9 32.7 49.5q1.3 1.4 2.6 2.8 1.2 1.3 2.5 2.5 0.5 0.5 0.9 0.9c0.9 1 1.9 1.9 2.8 2.8 0.1 0.1 0.1 0.1 0.1 0.1q1.6 1.6 3.3 3 1.7 1.6 3.4 3c1.1 1 2.3 2 3.4 3q3.4 2.8 7 5.5 0 0 0.1 0c3.6 2.8 7.3 5.3 11 7.7q2 1.2 4 2.5 1.6 1 3.2 1.9 2.3 1.3 4.7 2.6c1.2 0.7 2.3 1.3 3.5 1.9 1.8 0.9 3.6 1.8 5.4 2.6q1.7 0.8 3.4 1.6 2.1 0.9 4.2 1.8 5.9 2.5 12 4.6 2 0.7 4 1.3 2.5 0.9 5.1 1.6 2.3 0.7 4.7 1.3 1.9 0.5 3.9 0.9 11.9 2.9 24.2 4.1 2.4 0.3 4.8 0.5c12.7 1 25.6 0.6 38.4-1q2.4-0.3 4.7-0.7c1.6-0.2 3.3-0.5 4.9-0.8 1.5-0.3 2.9-0.5 4.3-0.8q4.4-0.9 8.6-2 1.8-0.4 3.5-0.9 1.8-0.5 3.5-1 1.8-0.5 3.5-1.1c2.3-0.7 4.7-1.5 6.9-2.4q1.8-0.6 3.5-1.3 1.7-0.6 3.4-1.3c1.1-0.5 2.3-0.9 3.4-1.4 19.6-8.4 37.4-20 52.8-34.2q1.9-1.7 3.6-3.4 0.2 0 0.3-0.3 1.7-1.5 3.2-3.1 1.3-1.3 2.6-2.7 1.3-1.3 2.5-2.7 1.6-1.7 3-3.4 1.5-1.7 3-3.4c3.8-4.7 7.4-9.5 10.8-14.5q0.9-1.3 1.7-2.6 2.4-3.7 4.6-7.5 0.8-1.3 1.6-2.7 1.5-2.6 2.8-5.3c0.6-1 1.1-2.1 1.7-3.1q0.2-0.4 0.4-0.8 0.9-1.8 1.7-3.7 0.2-0.3 0.3-0.7 0.9-1.9 1.8-3.8 0.1-0.2 0.1-0.4 1-2.1 1.8-4.3 0.9-2.2 1.8-4.5 2.5-6.8 4.5-13.7c2.6-9.3 4.6-18.7 5.8-28.2q0.3-2.4 0.5-4.8 1-9.4 1-19.1c0-1.4 0-2.9-0.1-4.3z"></path><g id="&lt;Group&gt;"><path id="&lt;Path&gt;" class="s17" d="m1271.1 349c1.9 108.2 91 194.3 199.2 192.4 108.1-1.9 194.2-91 192.3-199.2-1.9-108.1-91-194.2-199.2-192.3-108.1 1.8-194.2 91-192.3 199.1z"></path></g><g id="&lt;Group&gt;"><path id="&lt;Path&gt;" class="s18" d="m1473.3 525.3c99-1.7 178.2-83.7 176.5-182.8-1.7-99-83.7-178.2-182.8-176.5-99 1.7-178.2 83.7-176.5 182.8 1.7 99 83.7 178.2 182.8 176.5z"></path></g><g id="&lt;Group&gt;"><path id="&lt;Path&gt;" class="s1" d="m1612.4 436.3c-29.7 47.8-82.2 79.9-142.5 80.9-94.7 1.6-173-74-174.6-168.6-0.9-47.6 17.9-91 48.8-122.7 30.4-31.3 72.7-51.1 119.8-51.9 94.6-1.5 172.9 74.1 174.5 168.7 0.6 34.3-8.9 66.5-26 93.6z"></path></g><path id="&lt;Path&gt;" class="s0" d="m1465.3 174.1q-0.7-0.1-1.4-0.1c-47.1 0.8-89.4 20.6-119.8 51.9-17 27.2-26.6 59.3-26 93.7 1.7 94.6 80 170.2 174.6 168.5 47-0.8 89.3-20.5 119.7-51.8 16.6-26.3 25.9-57.4 25.9-90.7 0-1 0.1-1.9 0.1-2.9-1.6-94.1-79.2-169.4-173.1-168.6z"></path><g id="&lt;Group&gt;"><path id="&lt;Path&gt;" class="s5" d="m1456.2 195.3c0 4.5 3.7 8 8.2 7.9 4.4 0 8-3.7 7.9-8.2-0.1-4.4-3.8-8-8.2-7.9-4.5 0.1-8 3.8-7.9 8.2z"></path></g><g id="&lt;Group&gt;"><path id="&lt;Path&gt;" class="s5" d="m1565.6 231.8c-3.1 3.2-3 8.3 0.2 11.4 3.2 3.1 8.3 3 11.4-0.2 3.1-3.2 3-8.3-0.2-11.4-3.2-3.1-8.3-3-11.4 0.2z"></path></g><g id="&lt;Group&gt;"><path id="&lt;Path&gt;" class="s5" d="m1617.2 335c-4.5 0-8 3.7-8 8.2 0.1 4.4 3.8 8 8.3 7.9 4.4-0.1 7.9-3.8 7.9-8.2-0.1-4.5-3.8-8-8.2-7.9z"></path></g><g id="&lt;Group&gt;"><path id="&lt;Path&gt;" class="s5" d="m1580.7 444.4c-3.2-3.1-8.3-3-11.4 0.2-3.1 3.2-3 8.3 0.2 11.4 3.2 3.1 8.3 3 11.4-0.2 3.1-3.2 3-8.3-0.2-11.4z"></path></g><g id="&lt;Group&gt;"><path id="&lt;Path&gt;" class="s5" d="m1477.5 496c0-4.5-3.7-8-8.2-8-4.4 0.1-8 3.8-7.9 8.2 0.1 4.5 3.8 8 8.2 8 4.5-0.1 8-3.8 7.9-8.2z"></path></g><g id="&lt;Group&gt;"><path id="&lt;Path&gt;" class="s5" d="m1368.1 459.5c3.1-3.2 3-8.3-0.2-11.4-3.2-3.1-8.3-3-11.4 0.2-3.1 3.2-3 8.3 0.2 11.4 3.2 3.1 8.3 3 11.4-0.2z"></path></g><g id="&lt;Group&gt;"><path id="&lt;Path&gt;" class="s5" d="m1316.5 356.3c4.5-0.1 8-3.7 8-8.2-0.1-4.4-3.8-8-8.2-7.9-4.5 0.1-8 3.7-8 8.2 0.1 4.4 3.8 8 8.2 7.9z"></path></g><g id="&lt;Group&gt;"><path id="&lt;Path&gt;" class="s5" d="m1353 246.9c3.2 3.1 8.3 3 11.4-0.2 3.1-3.2 3-8.3-0.2-11.4-3.2-3.1-8.3-3-11.4 0.2-3.1 3.2-3 8.3 0.2 11.4z"></path></g><g id="&lt;Group&gt;"><path id="&lt;Path&gt;" class="s17" d="m1455.7 345.9c0.2 7.9 6.7 14.3 14.7 14.1 7.9-0.1 14.3-6.7 14.1-14.6-0.1-8-6.7-14.3-14.6-14.2-8 0.2-14.3 6.7-14.2 14.7z"></path></g><g id="&lt;Group&gt;"><path id="&lt;Path&gt;" class="s17" d="m1473.8 241.2l-5.7-15.3-5.2 15.5h3.5l1.8 104.3 3.9-0.1-1.9-104.3z"></path></g><g id="&lt;Group&gt;"><path id="&lt;Path&gt;" class="s17" d="m1470.1 343.7v3.9h65.1v3.4l15.4-5.5-15.4-5.4v3.6z"></path></g></g><g id="&lt;Group&gt;"><path id="&lt;Path&gt;" class="s19" d="m1072.5 299.5h-987.3v-137.7h987.3z"></path><path id="&lt;Path&gt;" class="s20" d="m1107.9 299.5h-987.3v-137.7h987.3z"></path><path id="&lt;Compound Path&gt;" fill-rule="evenodd" class="s5" d="m220.2 224.2v50c0 0.9-0.8 1.6-1.7 1.6h-63.6c-0.9 0-1.6-0.7-1.6-1.6v-50c0-0.9 0.7-1.6 1.6-1.6h13.6v-18.9c0-10 8.2-18.2 18.2-18.2 10 0 18.2 8.2 18.2 18.2v18.9h13.6c0.9 0 1.7 0.7 1.7 1.6zm-45.9-1.6h24.8v-18.9c0-6.8-5.5-12.4-12.4-12.4-6.8 0-12.4 5.6-12.4 12.4z"></path><g id="&lt;Group&gt;"><path id="&lt;Compound Path&gt;" class="s5" d="m250.1 194.8h7.6v29.6h0.1q1.4-3.1 4.9-5.1 3.5-1.9 8.1-1.9 2.9 0 5.5 0.8 2.6 0.9 4.6 2.7 2 1.9 3.1 4.8 1.2 2.8 1.2 6.8v25.4h-7.5v-23.4q0-2.7-0.8-4.7-0.7-1.9-2-3.1-1.2-1.2-2.9-1.8-1.6-0.5-3.3-0.5-2.4 0-4.4 0.7-2 0.8-3.5 2.4-1.5 1.6-2.3 4.1-0.8 2.5-0.8 5.9v20.4h-7.6z"></path><path id="&lt;Compound Path&gt;" class="s5" d="m317.7 224.9h-10.7v17.9q0 1.7 0 3.3 0.1 1.6 0.7 2.9 0.5 1.3 1.6 2.1 1.2 0.8 3.3 0.8 1.4 0 2.8-0.2 1.4-0.3 2.6-1v6.9q-1.4 0.7-3.5 1-2.1 0.3-3.3 0.3-4.3 0-6.7-1.2-2.4-1.2-3.5-3.1-1.1-1.9-1.3-4.3-0.2-2.4-0.2-4.8v-20.6h-8.7v-6.5h8.7v-11.1h7.5v11.1h10.7z"></path><path id="&lt;Compound Path&gt;" class="s5" d="m348.6 224.9h-10.8v17.9q0 1.7 0.1 3.3 0.1 1.6 0.6 2.9 0.6 1.3 1.7 2.1 1.1 0.8 3.3 0.8 1.3 0 2.8-0.2 1.4-0.3 2.6-1v6.9q-1.4 0.7-3.5 1-2.1 0.3-3.3 0.3-4.3 0-6.7-1.2-2.4-1.2-3.5-3.1-1.2-1.9-1.4-4.3-0.2-2.4-0.2-4.8v-20.6h-8.6v-6.5h8.6v-11.1h7.5v11.1h10.8z"></path><path id="&lt;Compound Path&gt;" fill-rule="evenodd" class="s5" d="m358.3 218.4h7.5v5.6h0.2q2.1-3.1 5.9-4.9 3.8-1.7 7.8-1.7 4.6 0 8.3 1.5 3.7 1.6 6.4 4.5 2.6 2.8 4 6.6 1.4 3.8 1.4 8.1 0 4.5-1.4 8.3-1.4 3.8-4 6.5-2.7 2.8-6.4 4.4-3.7 1.6-8.3 1.6-4.2 0-8-1.8-3.7-1.8-5.7-4.9h-0.2v29.2h-7.5zm20.5 6q-3 0-5.4 1.1-2.4 1-4.1 2.8-1.7 1.8-2.6 4.4-0.9 2.5-0.9 5.5 0 3 0.9 5.6 0.9 2.5 2.6 4.3 1.7 1.8 4.1 2.8 2.4 1.1 5.4 1.1 3 0 5.4-1.1 2.5-1 4.1-2.8 1.7-1.8 2.6-4.3 0.9-2.6 0.9-5.6 0-3-0.9-5.5-0.9-2.6-2.6-4.4-1.6-1.8-4.1-2.8-2.4-1.1-5.4-1.1z"></path><path id="&lt;Compound Path&gt;" class="s5" d="m415.2 228.9q-2.3 0-3.9-1.7-1.6-1.6-1.6-3.8 0-2.3 1.6-3.9 1.6-1.6 3.9-1.6 2.2 0 3.9 1.6 1.6 1.6 1.6 3.9 0 2.2-1.6 3.8-1.7 1.7-3.9 1.7zm-5.5 24q0-2.3 1.6-3.9 1.6-1.6 3.9-1.6 2.2 0 3.9 1.6 1.6 1.6 1.6 3.9 0 2.3-1.6 3.9-1.7 1.6-3.9 1.6-2.3 0-3.9-1.6-1.6-1.6-1.6-3.9z"></path><path id="&lt;Compound Path&gt;" class="s5" d="m432.6 261.6l-5.8-2.2 26.7-64.2 5.7 2.1z"></path><path id="&lt;Compound Path&gt;" class="s5" d="m465.1 261.6l-5.9-2.2 26.7-64.2 5.8 2.1z"></path></g></g><g id="&lt;Group&gt;"><g id="&lt;Group&gt;"><g id="&lt;Group&gt;"><path id="&lt;Path&gt;" class="s18" d="m1369.4 1342.6c8.7 8.7 21.3 13.6 34.9 11.5 20.1-3.1 34.5-21.1 34.5-41.4v-25.4h88.7v81.3h25.2c21.6 0 40.4 16.1 42 37.6 0.9 12.4-3.8 23.8-11.9 31.8-7.4 7.4-17.5 12-28.7 12h-26.6v81.3h-247.3c-6.3 0-11.5-5.2-11.5-11.5v-232.5h88.7v26.6c0 11.2 4.6 21.3 12 28.7z"></path></g><g id="&lt;Group&gt;"><path id="&lt;Path&gt;" class="s7" d="m1730.2 1380.6c-7.4 7.4-11.9 17.5-11.9 28.7 0 22.3 18.2 40.6 40.6 40.6h27.3v69.9c0 6.4-5.1 11.5-11.4 11.5h-247.3v-81.3h26.6c11.2 0 21.4-4.6 28.7-12 8.1-8 12.8-19.4 11.9-31.8-1.6-21.4-20.4-37.6-42-37.6h-25.2v-81.3h79.3v-25.4c0-20.3 14.4-38.4 34.5-41.4 13.6-2.1 26.2 2.7 35 11.4 7.4 7.4 11.9 17.6 11.9 28.8v26.6h98v81.3h-27.3c-11.1 0-21.3 4.6-28.7 12z"></path></g><g id="&lt;Group&gt;"><path id="&lt;Path&gt;" class="s21" d="m1280.2 1043.3h247.3v81.3h25.2c21.6 0 40.4 16.1 42 37.6 0.9 12.4-3.8 23.8-11.9 31.8-7.4 7.4-17.5 12-28.7 12h-26.6v81.3h-88.7v25.4c0 20.3-14.4 38.3-34.5 41.4-13.6 2.1-26.2-2.8-34.9-11.5-7.4-7.4-12-17.5-12-28.7v-26.6h-88.7v-232.5c0-6.4 5.2-11.5 11.5-11.5z"></path></g><path id="&lt;Path&gt;" class="s22" d="m1812.2 1125h-26.6v-69.6c0-6.3-5.1-11.5-11.5-11.5h-246.6v81.1h25.2c21.4 0 40.2 16.1 41.8 37.5 0.9 12.4-3.8 23.7-11.8 31.8-7.4 7.3-17.5 11.9-28.7 11.9h-26.5v81.1h79.1v-25.3c0-20.3 14.4-38.3 34.4-41.4 13.6-2 26.2 2.8 34.9 11.5 7.4 7.3 11.9 17.5 11.9 28.7v26.5h97.8v-81.1h26.6c22.4 0 40.7-18.2 40.7-40.6 0-22.3-18.3-40.6-40.7-40.6z"></path><g id="&lt;Group&gt;"><path id="&lt;Compound Path&gt;" fill-rule="evenodd" class="s0" d="m1617.7 1509.5v-27.6q0-7.5 2-12.4 2.1-4.9 5.2-7.7 3.2-2.8 7.1-3.9 4-1.1 7.6-1.1 3.7 0 7.6 1.1 3.9 1.1 7.1 3.9 3.1 2.8 5.2 7.7 2 4.9 2 12.4v16.9h34.6v10.7zm34.5-10.7v-13.9q0-3.1-0.5-6.2-0.5-3-1.8-5.4-1.4-2.4-3.8-3.8-2.5-1.4-6.5-1.4-4 0-6.5 1.4-2.5 1.4-3.8 3.8-1.3 2.4-1.8 5.4-0.5 3.1-0.5 6.2v13.9z"></path><path id="&lt;Compound Path&gt;" class="s0" d="m1617.7 1443.8v-10.6h32.5v-40.6h-32.5v-10.7h78.4v10.7h-35.9v40.6h35.9v10.6z"></path><path id="&lt;Compound Path&gt;" fill-rule="evenodd" class="s0" d="m1617.7 1361.8v-27.6q0-7.5 2-12.4 2.1-4.8 5.2-7.7 3.2-2.8 7.1-3.9 4-1.1 7.6-1.1 3.7 0 7.6 1.1 3.9 1.1 7.1 3.9 3.1 2.9 5.2 7.7 2 4.9 2 12.4v17h34.6v10.6zm34.5-10.6v-14q0-3.1-0.5-6.1-0.5-3.1-1.8-5.5-1.4-2.3-3.8-3.8-2.5-1.4-6.5-1.4-4 0-6.5 1.4-2.5 1.5-3.8 3.8-1.3 2.4-1.8 5.5-0.5 3-0.5 6.1v14z"></path></g><g id="&lt;Group&gt;"><path id="&lt;Compound Path&gt;" class="s0" d="m1602.6 1141.7h8.5v19.1h22.3v-19.1h8.5v47.8h-8.5v-21.1h-22.3v21.1h-8.5z"></path><path id="&lt;Compound Path&gt;" class="s0" d="m1662.4 1149.4h-14.7v-7.7h37.8v7.7h-14.6v40.1h-8.5z"></path><path id="&lt;Compound Path&gt;" class="s0" d="m1691.5 1141.7h13l12.7 33.5 12.9-33.5h12.8v47.8h-8.1v-39.7h-0.1l-14.5 39.7h-5.9l-14.6-39.7h-0.1v39.7h-8.1z"></path><path id="&lt;Compound Path&gt;" class="s0" d="m1753.8 1141.7h8.5v40.1h20.3v7.7h-28.8z"></path></g></g><g id="&lt;Group&gt;"><g id="&lt;Group&gt;"><path id="&lt;Path&gt;" class="s17" d="m1386.3 1342.6c8.7 8.7 21.4 13.6 35 11.5 20.1-3.1 34.5-21.1 34.5-41.4v-25.4h88.6v81.3h25.3c21.5 0 40.3 16.1 41.9 37.6 0.9 12.4-3.8 23.8-11.8 31.8-7.4 7.4-17.6 12-28.8 12h-26.6v81.3h-247.2c-6.4 0-11.5-5.2-11.5-11.5v-232.5h88.6v26.6c0 11.2 4.7 21.3 12 28.7z"></path></g><g id="&lt;Group&gt;"><path id="&lt;Path&gt;" class="s7" d="m1747.1 1380.6c-7.3 7.4-11.9 17.5-11.9 28.7 0 22.3 18.3 40.6 40.7 40.6h27.3v69.9c0 6.4-5.1 11.5-11.4 11.5h-247.3v-81.3h26.5c11.2 0 21.4-4.6 28.8-12 8.1-8 12.7-19.4 11.8-31.8-1.6-21.4-20.4-37.6-41.9-37.6h-25.2v-81.3h79.3v-25.4c0-20.3 14.3-38.4 34.5-41.4 13.6-2.1 26.2 2.7 34.9 11.4 7.5 7.4 12 17.6 12 28.8v26.6h98v81.3h-27.3c-11.2 0-21.4 4.6-28.8 12z"></path></g><g id="&lt;Group&gt;"><path id="&lt;Path&gt;" class="s23" d="m1297.2 1043.3h247.2v81.3h25.3c21.5 0 40.3 16.1 41.9 37.6 0.9 12.4-3.8 23.8-11.8 31.8-7.4 7.4-17.6 12-28.8 12h-26.6v81.3h-88.6v25.4c0 20.3-14.4 38.3-34.5 41.4-13.6 2.1-26.3-2.8-35-11.5-7.3-7.4-12-17.5-12-28.7v-26.6h-88.6v-232.5c0-6.4 5.1-11.5 11.5-11.5z"></path></g><path id="&lt;Path&gt;" class="s22" d="m1829.2 1125h-26.7v-69.6c0-6.3-5.1-11.5-11.4-11.5h-246.7v81.1h25.2c21.5 0 40.2 16.1 41.8 37.5 1 12.4-3.7 23.7-11.8 31.8-7.3 7.3-17.5 11.9-28.7 11.9h-26.5v81.1h79.2v-25.3c0-20.3 14.3-38.3 34.3-41.4 13.6-2 26.2 2.8 34.9 11.5 7.4 7.3 12 17.5 12 28.7v26.5h97.7v-81.1h26.7c22.3 0 40.6-18.2 40.6-40.6 0-22.3-18.3-40.6-40.6-40.6z"></path><g id="&lt;Group&gt;"><path id="&lt;Compound Path&gt;" class="s0" d="m1402.4 1447.4q0 6.1-1.9 11.7-2 5.7-5.8 9.9-3.8 4.3-9.6 6.8-5.8 2.5-13.4 2.5-12.1 0-19.8-5.6-7.8-5.6-10.2-17.9l17-4q0.9 5 4.1 8 3.3 3.1 8 3.1 7.8 0 10.6-5.3 2.9-5.3 2.9-14.5v-68.6h18.1z"></path><path id="&lt;Compound Path&gt;" class="s0" d="m1474.6 1395.5q-2.9-4.2-7.7-6.1-4.8-2-10.2-2-3.2 0-6.1 0.7-3 0.7-5.4 2.3-2.3 1.6-3.8 4.1-1.4 2.6-1.4 6 0 5.2 3.6 8 3.6 2.7 8.9 4.7 5.4 2.1 11.7 3.9 6.4 1.9 11.7 5.2 5.3 3.4 9 8.8 3.6 5.5 3.6 14.6 0 8.2-3.1 14.4-3 6.1-8.1 10.1-5.1 4.1-11.9 6.1-6.8 2-14.3 2-9.5 0-18.3-3.1-8.9-3.2-15.2-10.7l13.7-13.3q3.3 5 8.7 7.9 5.5 2.8 11.5 2.8 3.2 0 6.4-0.9 3.1-0.9 5.7-2.6 2.6-1.7 4.2-4.4 1.6-2.7 1.6-6.1 0-5.7-3.6-8.7-3.6-3-8.9-5.1-5.4-2.1-11.7-4-6.4-1.9-11.7-5.1-5.4-3.2-9-8.7-3.6-5.4-3.6-14.5 0-7.9 3.3-13.7 3.2-5.7 8.5-9.6 5.2-3.8 12-5.7 6.8-1.9 13.9-1.8 8.1 0 15.6 2.4 7.6 2.5 13.7 8.1z"></path></g><g id="&lt;Group&gt;"><path id="&lt;Compound Path&gt;" fill-rule="evenodd" class="s0" d="m1634.6 1509.5v-27.6q0-7.5 2.1-12.4 2-4.9 5.2-7.7 3.1-2.8 7.1-3.9 3.9-1.1 7.6-1.1 3.6 0 7.5 1.1 4 1.1 7.1 3.9 3.2 2.8 5.2 7.7 2.1 4.9 2.1 12.4v16.9h34.5v10.7zm34.6-10.7v-13.9q0-3.1-0.5-6.2-0.5-3-1.9-5.4-1.3-2.4-3.8-3.8-2.5-1.4-6.5-1.4-4 0-6.4 1.4-2.5 1.4-3.9 3.8-1.3 2.4-1.8 5.4-0.5 3.1-0.5 6.2v13.9z"></path><path id="&lt;Compound Path&gt;" class="s0" d="m1634.6 1443.8v-10.6h32.6v-40.6h-32.6v-10.7h78.4v10.7h-35.9v40.6h35.9v10.6z"></path><path id="&lt;Compound Path&gt;" fill-rule="evenodd" class="s0" d="m1634.6 1361.8v-27.6q0-7.5 2.1-12.4 2-4.8 5.2-7.7 3.1-2.8 7.1-3.9 3.9-1.1 7.6-1.1 3.6 0 7.5 1.1 4 1.1 7.1 3.9 3.2 2.9 5.2 7.7 2.1 4.9 2.1 12.4v17h34.5v10.6zm34.6-10.6v-14q0-3.1-0.5-6.1-0.5-3.1-1.9-5.5-1.3-2.3-3.8-3.8-2.5-1.4-6.5-1.4-4 0-6.4 1.4-2.5 1.5-3.9 3.8-1.3 2.4-1.8 5.5-0.5 3-0.5 6.1v14z"></path></g><g id="&lt;Group&gt;"><path id="&lt;Compound Path&gt;" fill-rule="evenodd" class="s0" d="m1312.5 1134.9h17q4.6 0 7.6 1.3 3 1.3 4.7 3.2 1.8 1.9 2.4 4.4 0.7 2.4 0.7 4.6 0 2.3-0.7 4.7-0.6 2.4-2.4 4.4-1.7 1.9-4.7 3.2-3 1.2-7.6 1.2h-10.5v21.3h-6.5zm6.5 21.3h8.6q1.9 0 3.8-0.3 1.9-0.3 3.3-1.2 1.5-0.8 2.4-2.3 0.9-1.5 0.9-4 0-2.5-0.9-4-0.9-1.5-2.4-2.3-1.4-0.9-3.3-1.2-1.9-0.3-3.8-0.3h-8.6z"></path><path id="&lt;Compound Path&gt;" class="s0" d="m1347.5 1150.9h7.1l9.6 25.2h0.1l9.2-25.2h6.5l-15.3 39.3q-0.8 2.1-1.7 3.8-0.9 1.7-2.1 3-1.2 1.2-3 1.9-1.7 0.7-4.2 0.7-1.4 0-2.8-0.2-1.3-0.2-2.6-0.7l0.7-5.6q1.8 0.7 3.7 0.7 1.4 0 2.4-0.3 1-0.4 1.7-1.1 0.7-0.7 1.2-1.7 0.4-1 0.9-2.2l2-5.1z"></path><path id="&lt;Compound Path&gt;" class="s0" d="m1402.7 1156.2h-8.8v14.7q0 1.3 0.1 2.7 0.1 1.3 0.5 2.3 0.5 1.1 1.4 1.7 0.9 0.7 2.7 0.7 1.1 0 2.2-0.2 1.2-0.2 2.1-0.8v5.6q-1.1 0.6-2.8 0.9-1.7 0.2-2.7 0.2-3.5 0-5.5-1-1.9-1-2.8-2.5-1-1.6-1.1-3.5-0.2-2-0.2-4v-16.8h-7.1v-5.3h7.1v-9.1h6.1v9.1h8.8z"></path><path id="&lt;Compound Path&gt;" class="s0" d="m1410.6 1131.7h6.2v24.2h0.1q1.2-2.6 4-4.2 2.9-1.6 6.6-1.6 2.4 0 4.5 0.7 2.2 0.7 3.8 2.2 1.6 1.5 2.5 3.9 1 2.3 1 5.5v20.8h-6.2v-19.1q0-2.2-0.6-3.8-0.6-1.6-1.6-2.6-1-1-2.4-1.5-1.3-0.4-2.7-0.4-1.9 0-3.6 0.6-1.6 0.6-2.8 2-1.3 1.3-1.9 3.3-0.7 2.1-0.7 4.9v16.6h-6.2z"></path><path id="&lt;Compound Path&gt;" fill-rule="evenodd" class="s0" d="m1447 1167q0-3.5 1.3-6.6 1.3-3 3.6-5.4 2.4-2.3 5.5-3.6 3.1-1.3 6.8-1.3 3.6 0 6.7 1.3 3.1 1.3 5.5 3.6 2.3 2.4 3.6 5.4 1.3 3.1 1.3 6.6 0 3.6-1.3 6.7-1.3 3.1-3.6 5.4-2.4 2.3-5.5 3.6-3.1 1.3-6.7 1.3-3.7 0-6.8-1.3-3.1-1.3-5.5-3.6-2.3-2.3-3.6-5.4-1.3-3.1-1.3-6.7zm6.5 0q0 2.5 0.8 4.6 0.7 2.1 2.1 3.5 1.3 1.5 3.3 2.3 2 0.9 4.5 0.9 2.4 0 4.4-0.9 2-0.8 3.3-2.3 1.4-1.4 2.1-3.5 0.8-2.1 0.8-4.6 0-2.4-0.8-4.5-0.7-2.1-2.1-3.5-1.3-1.5-3.3-2.4-2-0.8-4.4-0.8-2.5 0-4.5 0.8-2 0.9-3.3 2.4-1.4 1.4-2.1 3.5-0.8 2.1-0.8 4.5z"></path><path id="&lt;Compound Path&gt;" class="s0" d="m1489 1150.9h6.2v5h0.1q1.2-2.6 4-4.2 2.9-1.6 6.6-1.6 2.4 0 4.5 0.7 2.1 0.7 3.8 2.2 1.6 1.5 2.5 3.9 1 2.3 1 5.5v20.8h-6.2v-19.1q0-2.2-0.6-3.8-0.6-1.6-1.6-2.6-1-1-2.4-1.5-1.3-0.4-2.7-0.4-1.9 0-3.6 0.6-1.6 0.6-2.8 2-1.3 1.3-2 3.3-0.6 2.1-0.6 4.9v16.6h-6.2z"></path></g><g id="&lt;Group&gt;"><path id="&lt;Compound Path&gt;" class="s0" d="m1619.5 1141.7h8.5v19.1h22.4v-19.1h8.5v47.8h-8.5v-21.1h-22.4v21.1h-8.5z"></path><path id="&lt;Compound Path&gt;" class="s0" d="m1679.3 1149.4h-14.6v-7.7h37.8v7.7h-14.7v40.1h-8.5z"></path><path id="&lt;Compound Path&gt;" class="s0" d="m1708.5 1141.7h12.9l12.8 33.5 12.9-33.5h12.8v47.8h-8.1v-39.7h-0.1l-14.5 39.7h-6l-14.5-39.7h-0.1v39.7h-8.1z"></path><path id="&lt;Compound Path&gt;" class="s0" d="m1770.8 1141.7h8.5v40.1h20.3v7.7h-28.8z"></path></g></g></g><g id="&lt;Group&gt;"><path id="&lt;Path&gt;" class="s24" d="m482.7 541.5c0 0-16.4-20.8 7.9-30.9 12.3-5.1 15.8-11.8 12.3-21-3.4-9.3 0.5-19.4 10.2-24.8 9.7-5.4 13.9-21.3 34.2-12 0 0 25.7 10.1 24.6 25.7-1 15.7-0.8 14.4 4.7 25 5.4 10.7-6 23.4-6.4 29.8-0.4 6.2 2.3 8.2 2.3 8.2z"></path><path id="&lt;Path&gt;" class="s17" d="m641.5 682.7c-11.2 6.9-26.1 3.3-33.1-7.9l-52-84.8c-6.9-11.3-3.3-26.1 7.9-33.1 11.3-6.9 26.2-3.3 33.1 8l52 84.7c7 11.3 3.4 26.2-7.9 33.1z"></path><path id="&lt;Path&gt;" class="s25" d="m482.4 712.6c0 0-7 8-9.8 14.5-2.8 6.5 30.5 2.9 30.5 2.9l-3.7-31.2z"></path><path id="&lt;Path&gt;" class="s2" d="m704.4 849.3c-13 18.2-38.5 22.4-56.6 9.3l-126.7-90.8c-18.1-13-22.3-38.4-9.3-56.6 13-18.1 38.5-22.3 56.6-9.3l126.7 90.8c18.1 13 22.3 38.5 9.3 56.6z"></path><path id="&lt;Path&gt;" class="s25" d="m667.9 860.7c-13 18.1-38.5 22.3-56.6 9.3l-126.6-90.8c-18.2-13-22.4-38.5-9.4-56.6 13-18.1 38.5-22.3 56.6-9.3l126.7 90.8c18.1 13 22.3 38.5 9.3 56.6z"></path><path id="&lt;Path&gt;" class="s17" d="m516.8 543.6l-42.1 19.8c0 0 9.4 107.6 10.3 119.4 1 11.9-2.6 29.8-2.6 29.8h100.8c0 0-1.2-58.1 5.6-74.3 4.6-11 7.8-17.6 5.1-30.2-2.7-12.6-11.6-31.5-8.5-53.2l-25.9-10.4z"></path><path id="&lt;Path&gt;" class="s26" d="m700.5 1048.1l-7.8-27.4 42.1-6.1 3.5 27.6z"></path><path id="&lt;Path&gt;" class="s26" d="m559.5 495.5v49c0 0 0 0.6-0.1 1.5-0.5 4-3.1 14.3-16.4 14.1-12.1-0.1-20.6-9-24.2-13.7-1.3-1.7-2-2.8-2-2.8l6.1-48.1z"></path><path id="&lt;Path&gt;" class="s26" d="m558 1043.3l37.6 7.3 7.9-23.9-41.6-6.2z"></path><path id="&lt;Path&gt;" class="s27" d="m559.5 544.5l-21.7-27.8 21.7-4.2z"></path><path id="&lt;Path&gt;" class="s26" d="m560.5 525.2c-8.6 2.8-20.6-0.6-29.1-9.5-8.5-9-27.6-42.4-2.1-58 25.5-15.5 40.5 10.2 41.2 14.2 0 0 0.3 14.1 0.4 24 0.1 2.5 0.1 4.8 0.1 6.4 0 0.3 0.1 0.6 0.1 0.8 0.1 7.8-1.9 19.3-10.6 22.1z"></path><path id="&lt;Path&gt;" class="s17" d="m432.7 696.1c-11.9-5.7-17-20.2-11.3-32.1l42.8-89.7c5.7-12 20.2-17.1 32.1-11.4 11.9 5.7 17 20.2 11.3 32.1l-42.8 89.7c-5.7 12-20.2 17.1-32.1 11.4z"></path><path id="&lt;Path&gt;" class="s2" d="m660.5 793.9c-20.2 7.3-30.7 29.6-23.4 49.8l50.8 183 62.7-9.7-38.1-188.7c-0.2-3.6-0.9-7.3-2.2-10.9-7.3-20.2-29.5-30.7-49.8-23.5z"></path><path id="&lt;Path&gt;" class="s24" d="m551.5 1072l17.8 3.1 3.1-11.2 7.7 13.2 41.9 7.3-26.4-33.8-37.6-7.3z"></path><path id="&lt;Path&gt;" class="s25" d="m643.6 796.5c-21.1-3.8-41.3 10.4-45 31.5l-48.1 195.3 60 11.6 61.2-182.8c1.6-3.3 2.8-6.8 3.5-10.6 3.7-21.1-10.4-41.3-31.6-45z"></path><path id="&lt;Path&gt;" class="s28" d="m583.7 1055.9l16.8 2.9"></path><path id="&lt;Path&gt;" class="s24" d="m547.3 452.8c0 0 23.3 0.8 26.3 23.1l-11.8 0.5c0 0 0.1-7.6-5.8-10.9 0 0 4.2 5.8 2.8 11.5l-13.7 1.3c0 0-0.6-8.2 0.1-11.5 0 0-3.3 7.6-3.4 12.1l-9.6 2.6c0 0 0.1 7.8-3.4 10.5-3.5 2.8-8.2 15.2-8.2 15.2 0 0-9.9-27.3-5.5-36.1 4.4-8.7 12.3-22.7 32.2-18.3z"></path><path id="&lt;Path&gt;" class="s28" d="m586.8 1062.4l16.7 2.9"></path><path id="&lt;Path&gt;" class="s24" d="m703.7 1076.9l17.8-2.8-0.7-11.7 11.5 9.9 42.1-6.7-36.1-23.4-37.8 5.9z"></path><path id="&lt;Path&gt;" class="s28" d="m728.8 1051.2l16.8-2.8"></path><path id="&lt;Path&gt;" class="s28" d="m733.8 1056.3l16.8-2.7"></path><path id="&lt;Path&gt;" class="s29" d="m563.6 736c0 0 66.7 47 79.5 55.9 12.9 9 31.9 19.1 32.7 40.7 0.7 21.5-21 69.3-21 69.3"></path><path id="&lt;Path&gt;" class="s26" d="m527.3 498.6c1.5 4.5 1.4 7.5-2.2 8.7-3.5 1.1-8.5-0.8-10-5.4-1.5-4.6 0.2-9.2 3.8-10.4 3.5-1.2 6.9 2.5 8.4 7.1z"></path><path id="&lt;Path&gt;" class="s30" d="m518.2 496.1c0 0 5.7-0.3 6.2 4.6 0 0-1.9-1.7-4.7-1.2"></path><path id="&lt;Path&gt;" class="s24" d="m548.6 491.9c-0.1 1.9 0.9 3.4 2.1 3.4 1.2 0 2.2-1.5 2.2-3.3 0-1.9-0.9-3.4-2.1-3.4-1.3 0-2.2 1.5-2.2 3.3z"></path><path id="&lt;Path&gt;" class="s24" d="m564.5 490.6c-0.1 1.9 0.9 3.4 2.1 3.4 1.2 0 2.2-1.5 2.2-3.4 0-1.8-0.9-3.3-2.1-3.4-1.2 0-2.2 1.5-2.2 3.4z"></path><path id="&lt;Path&gt;" class="s0" d="m554.4 513.6c2.2 0.7 4.6-0.4 5.4-2.6l-8-2.8c-0.7 2.2 0.4 4.6 2.6 5.4z"></path><path id="&lt;Path&gt;" class="s31" d="m544.3 488.2c0 0 3.8-4.6 8.1-2.9"></path><path id="&lt;Path&gt;" class="s31" d="m564.8 484.5c0 0 2.7-0.5 5.6 2.5"></path><path id="&lt;Path&gt;" class="s31" d="m558.8 490.8c0 0 0.2 9.3 5.6 10.4 0 0-1.7 1.6-3.9 2.2"></path><path id="&lt;Path&gt;" class="s32" d="m551.5 502.1c-0.5 1.8-3.5 2.5-6.8 1.7-3.3-0.9-5.6-3-5.1-4.7 0.5-1.8 3.5-2.6 6.8-1.7 3.3 0.8 5.5 2.9 5.1 4.7z"></path><path id="&lt;Path&gt;" class="s32" d="m571 502.3c-1.9 0.1-3.5-0.5-3.9-1.7-0.5-1.6 1.1-3.5 3.8-4.7 0.1 2.5 0.1 4.8 0.1 6.4z"></path><path id="&lt;Path&gt;" class="s26" d="m606.3 668.6c-5.8-13.3-0.9-28.4 10.8-33.5l107-30.4c3.4-1.8 7.1-4 10-6.2 6.7-5.1 26.6-16.9 28.3-14 1.6 2.9-10.3 13.7-8.6 14.3 1.7 0.6 12.3-5.2 16.6-8.1 4.4-2.9 12.7-10.5 15.5-9.5 2.9 1.1 2.5 5.5 2.5 5.5 0 0 2.8-3.3 4.5-1.1 1.8 2.1-1.4 8.3-1.4 8.3 0 0 1.4-2 2.7 0.9 1.3 2.8-6.5 10.5-6.5 10.5 0 0 2-0.9 2.7 1.4 0.7 2.3-10.7 11.2-20.6 14.8-8.9 3.2-30.8 8.4-35.4 9.5l-96.3 52.5c-11.7 5.1-26.1-1.6-31.8-14.9z"></path><path id="&lt;Path&gt;" class="s33" d="m483.1 646.4l14.2-29.9"></path><path id="&lt;Path&gt;" class="s34" d="m545.9 769.3l-37.8-33.3h111.6l41.5 33.3z"></path><path id="&lt;Path&gt;" class="s35" d="m526.2 508.8c0 1.9-1.6 3.5-3.6 3.5-1.9 0-3.5-1.6-3.5-3.6 0-1.9 1.6-3.5 3.6-3.5 1.9 0 3.5 1.6 3.5 3.6z"></path><g id="&lt;Group&gt;"><path id="&lt;Path&gt;" class="s36" d="m661.2 769.3h-115.3l30.1-86.3h115.3z"></path><g id="&lt;Group&gt;"><path id="&lt;Path&gt;" class="s34" d="m547.1 765.2l-37.7-33.4h111.6l41.5 33.4z"></path><path id="&lt;Path&gt;" class="s36" d="m659 767.4h-115.3l30.1-86.4h115.3z"></path><path id="&lt;Path&gt;" class="s34" d="m689.1 681l2.2 2h-115.3l-30.1 86.3-2.2-1.9 30.1-86.4z"></path><path id="&lt;Path&gt;" class="s15" d="m509.4 731.8l-1.3 4.2 37.8 33.3 1.4-4.1z"></path></g><path id="&lt;Path&gt;" class="s34" d="m636.2 727.1c0 3.2-5.7 5.7-12.8 5.7-7 0-12.7-2.5-12.7-5.7 0-3.1 5.7-5.6 12.8-5.6 7 0 12.7 2.5 12.7 5.6z"></path></g><path id="&lt;Path&gt;" class="s26" d="m421.3 661.5c6.8-12.8 21.6-18.4 32.9-12.4l90.5 64.8c3.5 1.5 7.5 3 11 3.9 8.2 2.1 29.8 10.3 28.6 13.4-1.2 3.1-17.1 0.5-16.6 2.2 0.6 1.7 11.8 6.4 16.8 8 4.9 1.6 16.1 3.3 17 6.2 1 2.9-2.7 5.3-2.7 5.3 0 0 4.3 0.2 3.7 2.9-0.6 2.7-7.4 4.1-7.4 4.1 0 0 2.4-0.2 1 2.6-1.4 2.8-12.3 1.4-12.3 1.4 0 0 2 1.1 0.6 3.1-1.4 1.9-15.4-1.4-24.4-7-8-4.9-25.8-18.8-29.5-21.7l-101.1-42.6c-11.3-6-14.9-21.4-8.1-34.2z"></path><path id="&lt;Path&gt;" class="s33" d="m588.5 639.3c0 0 7.5-16 6.3-24.3-1.2-8.3-8-30.6-8.9-37.5"></path></g><g id="&lt;Group&gt;"><path id="&lt;Path&gt;" class="s37" d="m1116 944.7l52.1-0.9-2.8-54.6-1.3-26.1v-1.4l-40.7-17.1-1.4 18.5-1 13.5z"></path><path id="&lt;Path&gt;" class="s38" d="m1217.8 1113.8l21.9 181.1c0.6 4.5 0.6 9.3-0.3 14.1-4.4 22.6-26.3 37.4-48.9 33-22.6-4.4-31.3-21.9-35.3-47.8-7.8-49.9-35.1-199.4-35.1-199.4z"></path><path id="&lt;Path&gt;" class="s38" d="m1075.9 1104.7l80.4 5.3-0.4 89.1-9.6 14.1-8.8 85.8-81.3-6.5z"></path><path id="&lt;Path&gt;" class="s37" d="m1141.4 921.8c-19.1 0.5-28.4-10-30.4-14.6l8.3-2.3 46.7-1.5 5.7 1.9c-2.4 4.4-10.8 16.1-30.3 16.5z"></path><path id="&lt;Path&gt;" class="s0" d="m1073.6 1040.6l0.9 78.1h143.9l-0.7-196.8-50.4-18.3c-0.6 1.1-1.2 2.2-2 3.3l-0.1 0.2c-2.8 3.5-8 6.8-22.6 7.1-12.2 0.3-18.2-1.4-21.6-3.6h-0.1c-1.8-1.3-3.2-3.7-4.1-5l-47.2 11.5 3.2 99.3z"></path><path id="&lt;Path&gt;" class="s17" d="m1111 907.2c0 0 4.1 72.8 3.5 114.9-0.6 42.1-3.5 148.5-3.5 148.5 0 0-26.7 0.5-51.2-4.4 0 0-0.4-48.2 6.4-81.5 6.8-33.2 3.4-167.6 3.4-167.6z"></path><path id="&lt;Path&gt;" class="s17" d="m1263.5 1080.8l-0.3 0.1c-13.4 5.3-28.7-1.4-34-14.8l-42.8-109.2c-5.3-13.4 1.4-28.7 14.8-34l0.3-0.1c13.4-5.2 28.7 1.4 33.9 14.8l42.9 109.3c5.2 13.4-1.4 28.6-14.8 33.9z"></path><path id="&lt;Path&gt;" class="s38" d="m1254.9 1478.7l-75.6-0.1-22.8-175.9c-2.4-22.9 14.2-43.4 37.1-45.8 23-2.4 43.5 14.2 45.9 37.1 0.2 2 0.2 3.9 0.1 5.9l13.2 154.4z"></path><path id="&lt;Path&gt;" class="s38" d="m1137.8 1295.9l-19.4 182.8h-74.3l11.9-183.9c-0.1-1.9 0.5-4.1 0.6-6.1 2.1-22.9 20.3-40.1 43.3-38.1 22.9 2.1 39.9 22.3 37.9 45.3z"></path><path id="&lt;Path&gt;" class="s24" d="m1120.8 830.1c0 0-4.1-18.2 4.1-15.2 8.1 2.9-4.1 15.2-4.1 15.2z"></path><path id="&lt;Path&gt;" class="s17" d="m1171.7 905.3c0 0-19.7 102-20.3 152.7-0.7 50.7-0.7 50.7-0.7 50.7l2.3 61.9c0 0 54.8 6.8 74-1 0 0 1.3-73.5-3.8-99.5-5.1-26-5.5-148.2-5.5-148.2z"></path><path id="&lt;Path&gt;" class="s39" d="m1119.5 896.5l29.3-21.4-27.9 1.5z"></path><path id="&lt;Path&gt;" class="s40" d="m1161.6 1155.6c0 0 39.9 6.6 58.5 0"></path><path id="&lt;Path&gt;" class="s37" d="m1123.6 816.8c0 0-4.5 16.9-7.6 28.9l-2.6 9.9c-2.1 7.9-2.9 20 5.2 25 8.1 5 21.2 4.5 32-2.4 10.8-7 40.4-43.5 18.4-65.6-22.1-22.1-43.8 0.3-45.4 4.2z"></path><path id="&lt;Path&gt;" class="s40" d="m1101.5 927.3c0 0 4 63.6 5.4 91.8 1.4 28.2-5.4 127.4-5.4 127.4"></path><path id="&lt;Path&gt;" class="s24" d="m1164.7 882.9c0 0-4.7-12-3.3-17.8 1.4-5.9-4.3-13.7-1.7-22.6 2.5-8.9 3.6-12.7-1.2-13-4.8-0.3-39.3 1.7-37.6-14.2 1.7-16 43.5-24.8 55.1 4.5 0 0 10.6 1.3 3.7 23.1-6.8 21.9-12.2 25-15 40z"></path><path id="&lt;Path&gt;" class="s40" d="m1180.1 915.3c0 0-7.5 62.3-12 93.1-4.6 30.8-5.4 106.7-6.5 134.9"></path><g id="&lt;Group&gt;"><path id="&lt;Path&gt;" class="s37" d="m1158.2 860.1c-4.4 4-6.1 7.2-2.9 10.5 3.1 3.4 9.6 4.3 13.9 0.3 4.3-4 5.2-10 2.1-13.3-3.1-3.4-8.8-1.5-13.1 2.5z"></path></g><path id="&lt;Path&gt;" class="s24" d="m1141.2 844.9c-0.5 1.8-1.8 3.1-3 2.8-1.2-0.3-1.7-2.1-1.2-3.9 0.4-1.8 1.8-3 2.9-2.7 1.2 0.3 1.8 2 1.3 3.8z"></path><path id="&lt;Path&gt;" class="s24" d="m1119.2 839.2c-0.4 1.8 0.1 3.5 1.3 3.8 1.2 0.3 2.5-0.9 3-2.7 0.5-1.8-0.1-3.6-1.3-3.9-1.2-0.3-2.5 1-3 2.8z"></path><path id="&lt;Path&gt;" class="s39" d="m1134.7 856c0.1 1.9 3.1 3.1 6.7 2.9 3.7-0.2 6.5-1.9 6.4-3.7-0.2-1.9-3.2-3.1-6.8-2.9-3.6 0.3-6.4 1.9-6.3 3.7z"></path><path id="&lt;Path&gt;" class="s39" d="m1116 845.7l-1.7 6.4c2.6 1.1 5 0.9 5.8-0.4 0.8-1.6-1-4.3-4.1-6z"></path><path id="&lt;Path&gt;" class="s41" d="m1165.8 866.4c-2.8-1.3-5.4-1.4-5.4-1.4 4-4.3 7.7-2.7 7.7-2.7"></path><path id="&lt;Path&gt;" class="s42" d="m1131.8 843.8l-7 10.6c-0.7 1-0.6 2.5 0.2 3.4l1.4 1.5 1.4 1.5"></path><path id="&lt;Path&gt;" class="s42" d="m1144.9 841.9c0 0-2.9-4.8-7.8-4.8"></path><path id="&lt;Path&gt;" class="s42" d="m1118.7 833c0 0 3.9-2.1 7.7 1"></path><path id="&lt;Path&gt;" class="s37" d="m1107.7 1507.3l2-28.6h-55.7l-2.2 28.6z"></path><path id="&lt;Path&gt;" class="s17" d="m1037.1 1080.9l-0.3-0.1c-13.9-3.8-22.2-18.3-18.4-32.2l31-113.2c3.8-13.8 18.3-22.1 32.2-18.3l0.3 0.1c13.9 3.8 22.2 18.3 18.4 32.2l-31.1 113.1c-3.8 13.9-18.2 22.2-32.1 18.4z"></path><path id="&lt;Path&gt;" class="s39" d="m1053 1491.6l56.7-12.9h-55.7z"></path><path id="&lt;Path&gt;" class="s37" d="m1190.3 1507.3l-2.2-28.7 57 0.1 1 28.6z"></path><path id="&lt;Path&gt;" class="s39" d="m1189.3 1494.6l55.8-15.9-57-0.1z"></path><path id="&lt;Path&gt;" class="s24" d="m1024.4 1531.3h82.2l0.1-3.4 1-22.1h-55.9c-6.9 0-13.3 4.1-18.2 8.3-4 3.6-7.1 8.4-8.5 13.8q-0.5 1.7-0.7 3.4z"></path><path id="&lt;Path&gt;" class="s43" d="m1024.4 1531.3h82.2l0.1-3.4h-81.6q-0.5 1.7-0.7 3.4z"></path><g id="&lt;Group&gt;"><path id="&lt;Path&gt;" class="s44" d="m1050.1 1510.4c0 0 7.1-12.5 11.9-7.6 4.8 4.9-11.9 7.6-11.9 7.6z"></path><path id="&lt;Path&gt;" class="s44" d="m1052.6 1512.8l-2.5-2.4c0 0-7.1-12.5-11.8-7.6-4.8 4.9 11.8 7.6 11.8 7.6"></path><path id="&lt;Path&gt;" class="s44" d="m1048.2 1512.8l1.9-2.4"></path></g><path id="&lt;Path&gt;" class="s24" d="m1273.1 1531.3h-82.2l-0.1-3.4-1-22.1h55.9c6.9 0 13.3 4.1 18.2 8.3 4 3.6 7 8.4 8.5 13.8q0.5 1.7 0.7 3.4z"></path><path id="&lt;Path&gt;" class="s43" d="m1273.1 1531.3h-82.2l-0.1-3.4h81.6q0.5 1.7 0.7 3.4z"></path><g id="&lt;Group&gt;"><path id="&lt;Path&gt;" class="s44" d="m1247.3 1511.1c0 0-7.1-12.5-11.8-7.5-4.8 4.9 11.8 7.5 11.8 7.5z"></path><path id="&lt;Path&gt;" class="s44" d="m1244.8 1513.6l2.5-2.5c0 0 7.1-12.5 11.9-7.5 4.8 4.9-11.9 7.5-11.9 7.5"></path><path id="&lt;Path&gt;" class="s44" d="m1249.3 1513.6l-2-2.5"></path></g><path id="&lt;Path&gt;" class="s45" d="m1144.5 1231.1l-6.5-21.8h-6.3l-10-27.1"></path><path id="&lt;Path&gt;" class="s45" d="m1247.3 1458h-64.3"></path><path id="&lt;Path&gt;" class="s45" d="m1116.2 1458h-64.4"></path><path id="&lt;Path&gt;" class="s0" d="m1133.3 865.1l-10.3 1.8c0 0 1.1 5.3 6.3 4.7 5.2-0.6 4-6.5 4-6.5z"></path><path id="&lt;Path&gt;" class="s40" d="m1063.2 1151.9c0 0 19.1 6.4 38.3 1.3"></path><path id="&lt;Path&gt;" class="s0" d="m1101.5 1042.4c0 2-1.6 3.6-3.6 3.6-1.9 0-3.5-1.6-3.5-3.6 0-2 1.6-3.6 3.5-3.6 2 0 3.6 1.6 3.6 3.6z"></path><path id="&lt;Path&gt;" class="s0" d="m1101.5 1075.2c0 2-1.6 3.6-3.6 3.6-1.9 0-3.5-1.6-3.5-3.6 0-2 1.6-3.6 3.5-3.6 2 0 3.6 1.6 3.6 3.6z"></path><path id="&lt;Path&gt;" class="s0" d="m1097 1131.4c0 1.9-1.6 3.5-3.6 3.5-1.9 0-3.5-1.6-3.5-3.5 0-2 1.6-3.6 3.5-3.6 2 0 3.6 1.6 3.6 3.6z"></path><g id="&lt;Group&gt;"><path id="&lt;Path&gt;" class="s36" d="m999.4 1111.9h122.7l-32-92h-122.8z"></path><g id="&lt;Group&gt;"><path id="&lt;Path&gt;" class="s34" d="m1120.8 1107.4l40.1-35.5h-118.7l-44.2 35.5z"></path><path id="&lt;Path&gt;" class="s36" d="m1001.7 1109.8h122.7l-32-91.9h-122.8z"></path><path id="&lt;Path&gt;" class="s34" d="m969.6 1017.9l-2.3 2h122.8l32 92 2.3-2.1-32-91.9z"></path><path id="&lt;Path&gt;" class="s15" d="m1160.9 1071.9l1.4 4.5-40.2 35.5-1.5-4.5z"></path></g><path id="&lt;Path&gt;" class="s34" d="m1025.9 1067c0 3.3 6.1 6 13.7 6 7.5 0 13.6-2.7 13.6-6 0-3.4-6.1-6.1-13.6-6.1-7.6 0-13.7 2.7-13.7 6.1z"></path></g><path id="&lt;Path&gt;" class="s37" d="m1097.6 1124.7c0.9 2.1 14.9 2 24.6-1.2 8.2-2.8 26.4-11.2 31.8-13.7l-10.2-33c-3.4 0.6-10.5 1.2-13.7 1.9-8.6 2-25.1 9.1-24.6 12.3 0.4 3.2 15.5 0.1 14.5 1.6-0.9 1.5-11.9 7.5-16.9 7.9-5 0.5-15.9-0.3-17.4 2.2-1.6 2.5 1.4 5.6 1.4 5.6 0 0-4.1-0.8-4.1 1.9 0 2.7 6.1 5.5 6.1 5.5 0 0-2.2-0.7-1.5 2.2 0.7 3 11.2 4.1 11.2 4.1 0 0-2 0.5-1.2 2.7z"></path><path id="&lt;Path&gt;" class="s17" d="m1141.8 1070.3l103.6-41.6c12.4-4.5 26.9 3.2 32.1 17.3 5.2 14.1-0.8 29.4-13.2 34l-107.9 37.7z"></path><path id="&lt;Path&gt;" class="s46" d="m1152.8 1065.9l66.2-25.8-19.7-50.3"></path><path id="&lt;Path&gt;" class="s46" d="m1223.8 1094.2l-57.9 20.2"></path></g><g id="&lt;Group&gt;"><path id="&lt;Path&gt;" class="s2" d="m1110.1 620.8h-172.4c-6.1 0-11-4.9-11-11v-143.1c0-6.1 4.9-11 11-11h172.4c6.1 0 11 4.9 11 11v143.1c0 6.1-4.9 11-11 11z"></path><path id="&lt;Path&gt;" class="s38" d="m1120.5 620.8h-172.4c-6.1 0-11-4.9-11-11v-143.1c0-6.1 4.9-11 11-11h172.4c6.1 0 11 4.9 11 11v143.1c0 6.1-4.9 11-11 11z"></path><g id="&lt;Group&gt;"><path id="&lt;Compound Path&gt;" class="s0" d="m1011.4 484.9h-6.5q-2.1 0-3.5 1-1.3 1.1-2.2 2.9-0.9 1.8-1.2 4-0.4 2.3-0.4 4.6v21.6q0.2 5-1.2 8.5-1.4 3.4-3.4 5.7-2 2.3-4.1 3.5-2 1.1-3.3 1.4v0.4q1.3 0.2 3.3 1.2 2.1 1 4.1 3.1 2 2.2 3.4 5.8 1.4 3.7 1.2 9.1v21.6q0 2.1 0.4 4.3 0.3 2.2 1.2 4 0.9 1.8 2.2 2.9 1.4 1.1 3.5 1.1h6.5v10.3h-10.8q-2.7 0-5.3-1.3-2.7-1.3-4.8-3.9-2.2-2.7-3.6-6.8-1.3-4.2-1.3-9.9v-19.3q-0.3-7.8-3.8-12.3-3.4-4.4-8.3-4.4v-11.2q4.9 0 8.3-4.5 3.5-4.4 3.8-12.3v-22.7q0-4.6 1.3-8.1 1.4-3.5 3.6-5.8 2.1-2.4 4.8-3.6 2.6-1.3 5.3-1.3h10.8z"></path><path id="&lt;Compound Path&gt;" class="s0" d="m1059.6 591.6h6.4q2.2 0 3.6-1.1 1.3-1.1 2.2-2.9 0.8-1.8 1.2-4 0.4-2.2 0.4-4.5v-21.7q-0.2-5 1.2-8.4 1.3-3.5 3.3-5.7 2.1-2.3 4.1-3.5 2.1-1.1 3.4-1.4v-0.5q-1.3-0.1-3.4-1.1-2-1-4.1-3.2-2-2.1-3.3-5.8-1.4-3.6-1.2-9.1v-21.5q0-2.1-0.4-4.4-0.4-2.2-1.2-4-0.9-1.8-2.2-2.9-1.4-1-3.6-1h-6.4v-10.4h10.7q2.8 0 5.4 1.3 2.7 1.3 4.8 4 2.2 2.6 3.5 6.8 1.4 4.2 1.4 9.9v19.2q0 7.9 3.6 12.3 3.6 4.5 8.5 4.5v11.2q-4.9 0-8.5 4.4-3.6 4.5-3.6 12.4v22.6q0 4.6-1.4 8.1-1.3 3.5-3.5 5.9-2.1 2.4-4.8 3.6-2.6 1.2-5.4 1.2h-10.7z"></path></g></g><g id="&lt;Group&gt;"><path id="&lt;Path&gt;" class="s18" d="m1742.6 956.1h-261.7c-8.2 0-14.8-6.6-14.8-14.8v-171c0-8.1 6.6-14.8 14.8-14.8h261.7c8.1 0 14.7 6.7 14.7 14.8v171c0 8.2-6.6 14.8-14.7 14.8z"></path><path id="&lt;Path&gt;" class="s17" d="m1758.1 956.1h-261.6c-8.2 0-14.8-6.6-14.8-14.8v-171c0-8.1 6.6-14.8 14.8-14.8h261.6c8.2 0 14.8 6.7 14.8 14.8v171c0 8.2-6.6 14.8-14.8 14.8z"></path><g id="&lt;Group&gt;"><path id="&lt;Compound Path&gt;" class="s0" d="m1497.3 873.7v-14.6l84.3-45.7v22.3l-56.3 30.7 56.3 30.6v22.3z"></path><path id="&lt;Compound Path&gt;" class="s0" d="m1607.2 937.5l-13.8-6 52-157.4 13.8 6.5z"></path><path id="&lt;Compound Path&gt;" class="s0" d="m1757.3 859.1v14.6l-84.3 45.6v-22.3l56.4-30.6-56.4-30.7v-22.3z"></path></g></g><g id="&lt;Group&gt;"><path id="&lt;Compound Path&gt;" class="s1" d="m1681.8 145.5v-7.8l44.7-24.2v11.9l-29.8 16.2 29.8 16.2v11.9z"></path><path id="&lt;Compound Path&gt;" class="s1" d="m1740.2 179.4l-7.4-3.3 27.6-83.4 7.3 3.4z"></path><path id="&lt;Compound Path&gt;" class="s1" d="m1819.8 137.7v7.8l-44.8 24.2v-11.9l29.9-16.2-29.9-16.2v-11.9z"></path></g><g id="&lt;Group&gt;"><path id="&lt;Compound Path&gt;" fill-rule="evenodd" class="s0" d="m282.8 616.7c2.4 2.6 6.3 3 9.1 1 1.6 2.9 2.7 6 3.2 9.2-3.4 0.2-6.2 3-6.3 6.5-0.2 3.5 2.3 6.5 5.6 7.1-0.8 3.1-2.2 6.1-4.2 8.9-2.5-2.3-6.4-2.3-9.1 0-2.6 2.4-2.9 6.3-0.9 9q-4.5 2.6-9.3 3.3c-0.2-3.4-3-6.2-6.5-6.3-3.5-0.2-6.5 2.3-7 5.6-3.2-0.8-6.2-2.2-8.9-4.2 2.2-2.5 2.3-6.5-0.1-9.1-2.3-2.6-6.2-2.9-9-0.9-1.7-3-2.7-6.1-3.3-9.3 3.4-0.2 6.2-3 6.4-6.5 0.2-3.5-2.3-6.5-5.7-7.1 0.9-3.1 2.3-6.1 4.2-8.8 2.6 2.2 6.5 2.3 9.1-0.1 2.6-2.3 3-6.2 1-9 2.9-1.7 6-2.8 9.2-3.3 0.2 3.4 3 6.2 6.5 6.4 3.5 0.1 6.5-2.3 7.1-5.7 3.1 0.9 6.1 2.3 8.9 4.2-2.3 2.6-2.3 6.5 0 9.1zm-26.9 4.7c-6 5.4-6.4 14.6-1 20.5 5.3 6 14.5 6.5 20.4 1.1 6-5.4 6.5-14.6 1.1-20.5-5.4-6-14.6-6.4-20.5-1.1z"></path><path id="&lt;Compound Path&gt;" fill-rule="evenodd" class="s0" d="m261.3 702.5c-1.7 3.5-0.5 7.7 2.7 9.7-2.4 2.9-5.2 5.3-8.2 7.2-1.6-3.4-5.6-5.2-9.3-3.9-3.6 1.2-5.7 5-4.9 8.7-3.6 0.3-7.3 0.1-10.9-0.7 1.3-3.6-0.3-7.6-3.7-9.4-3.5-1.7-7.7-0.5-9.7 2.7-2.9-2.3-5.3-5.1-7.2-8.2 3.5-1.6 5.2-5.6 4-9.2-1.3-3.7-5.1-5.8-8.8-5-0.4-3.6-0.1-7.3 0.7-10.9 3.6 1.3 7.6-0.2 9.4-3.7 1.7-3.5 0.5-7.7-2.7-9.7 2.3-2.9 5.1-5.3 8.2-7.2 1.6 3.5 5.6 5.2 9.2 4 3.7-1.3 5.8-5 5-8.7 3.6-0.4 7.3-0.2 10.9 0.7-1.3 3.5 0.2 7.6 3.7 9.3 3.5 1.7 7.7 0.5 9.7-2.7 2.9 2.4 5.3 5.2 7.2 8.2-3.5 1.6-5.2 5.6-4 9.3 1.3 3.6 5.1 5.7 8.8 4.9 0.3 3.6 0.1 7.3-0.8 10.9-3.5-1.3-7.6 0.3-9.3 3.7zm-15.8-25.7c-8-4-17.6-0.7-21.5 7.2-4 8-0.7 17.6 7.2 21.6 8 3.9 17.6 0.6 21.5-7.3 4-8 0.7-17.6-7.2-21.5z"></path></g></g></g></svg>